<svg xmlns="http://www.w3.org/2000/svg" width="1673.951" height="682.189" viewBox="0 0 1673.951 682.189">
  <g id="Group_1" data-name="Group 1" transform="translate(-136 -213.28)">
    <line id="Line_7" data-name="Line 7" y1="97.505" transform="translate(193.44 383.572)" fill="none" stroke="#707070" stroke-width="1"/>
    <line id="Line_18" data-name="Line 18" y1="115.577" x2="0.173" transform="translate(451.327 365.5)" fill="none" stroke="#707070" stroke-width="1"/>
    <line id="Line_19" data-name="Line 19" y1="79.28" transform="translate(709.519 401.797)" fill="none" stroke="#707070" stroke-width="1"/>
    <line id="Line_20" data-name="Line 20" y1="162.577" x2="0.094" transform="translate(967.406 318.5)" fill="none" stroke="#707070" stroke-width="1"/>
    <line id="Line_21" data-name="Line 21" y1="97.505" transform="translate(1225.294 383.572)" fill="none" stroke="#707070" stroke-width="1"/>
    <line id="Line_22" data-name="Line 22" x1="0.681" y1="113.577" transform="translate(1482.5 367.5)" fill="none" stroke="#707070" stroke-width="1"/>
    <line id="Line_23" data-name="Line 23" x1="0.569" y1="89.577" transform="translate(1740.5 391.5)" fill="none" stroke="#707070" stroke-width="1"/>
    <line id="Line_4" data-name="Line 4" x2="1547.629" transform="translate(193.44 481.077)" fill="none" stroke="#707070" stroke-linecap="round" stroke-width="17"/>
    <circle id="Ellipse_2" data-name="Ellipse 2" cx="20.2" cy="20.2" r="20.2" transform="translate(173.24 460.877)" fill="#78ede9"/>
    <circle id="Ellipse_8" data-name="Ellipse 8" cx="20.2" cy="20.2" r="20.2" transform="translate(431.128 460.877)" fill="#78ede9"/>
    <circle id="Ellipse_9" data-name="Ellipse 9" cx="20.2" cy="20.2" r="20.2" transform="translate(689.015 460.877)" fill="#78ede9"/>
    <circle id="Ellipse_10" data-name="Ellipse 10" cx="20.2" cy="20.2" r="20.2" transform="translate(947.207 460.877)" fill="#78ede9"/>
    <circle id="Ellipse_11" data-name="Ellipse 11" cx="20.2" cy="20.2" r="20.2" transform="translate(1205.094 460.877)" fill="#78ede9"/>
    <circle id="Ellipse_12" data-name="Ellipse 12" cx="20.2" cy="20.2" r="20.2" transform="translate(1462.982 460.877)" fill="#78ede9"/>
    <text id="Mockup" transform="translate(155 307.986)" fill="#707070" font-size="23" font-family="BellMT, Bell MT"><tspan x="0" y="0">Mockup</tspan></text>
    <text id="Prototyping" transform="translate(136 332.986)" fill="#707070" font-size="23" font-family="BellMT, Bell MT"><tspan x="0" y="0">Prototyping</tspan></text>
    <text id="Branding" transform="translate(149 357.986)" fill="#707070" font-size="23" font-family="BellMT, Bell MT"><tspan x="0" y="0">Branding</tspan></text>
    <text id="Front-end_" data-name="Front-end " transform="translate(657.347 358.983)" fill="#707070" font-size="23" font-family="BellMT, Bell MT"><tspan x="0" y="0">Front-end </tspan></text>
    <text id="Development" transform="translate(645.406 385.41)" fill="#707070" font-size="23" font-family="BellMT, Bell MT"><tspan x="0" y="0">Development</tspan></text>
    <text id="Backend_Development_Augmented_Reality_Virtual_Reality" data-name="Backend Development
Augmented Reality
Virtual Reality" transform="translate(967.787 232.28)" fill="#707070" font-size="23" font-family="BellMT, Bell MT"><tspan x="-105.302" y="0">Backend Development</tspan><tspan x="-91.281" y="30">Augmented Reality</tspan><tspan x="-69.96" y="60">Virtual Reality</tspan></text>
    <text id="System_Operation_Database_Artificial_Intelligence_Machine_Learning" data-name="System Operation
Database
Artificial Intelligence
Machine Learning" transform="translate(1224.973 280.058)" fill="#707070" font-size="23" font-family="BellMT, Bell MT"><tspan x="-84.341" y="0">System Operation</tspan><tspan x="-43.007" y="30">Database</tspan><tspan x="-100.26" y="60">Artificial Intelligence</tspan><tspan x="-86.374" y="90">Machine Learning</tspan></text>
    <text id="Crittografia" transform="translate(1482.695 318.778)" fill="#707070" font-size="23" font-family="BellMT, Bell MT"><tspan x="-63.615" y="0">Criptography</tspan><tspan x="-38.813" y="30">Security</tspan></text>
    <text id="Sicurezza" transform="translate(1742.951 280.222)" fill="#707070" font-size="23" font-family="BellMT, Bell MT"><tspan x="-66.49" y="0">Network Scan</tspan><tspan x="-65.047" y="30">Vulnerability </tspan><tspan x="-44.568" y="60">Malware </tspan><tspan x="-45.753" y="90">Hijacking</tspan></text>
    <line id="Line_12" data-name="Line 12" y2="81.254" transform="translate(193.744 505.681)" fill="none" stroke="#707070" stroke-width="6"/>
    <line id="Line_13" data-name="Line 13" x2="512.336" transform="translate(193.744 586.935)" fill="none" stroke="#707070" stroke-width="6"/>
    <line id="Line_14" data-name="Line 14" y2="81.406" transform="translate(706.079 505.529)" fill="none" stroke="#707070" stroke-width="6"/>
    <circle id="Ellipse_13" data-name="Ellipse 13" cx="20.2" cy="20.2" r="20.2" transform="translate(1720.869 460.877)" fill="#78ede9"/>
    <text id="User_Interface" data-name="User Interface" transform="translate(385 308.805)" fill="#707070" font-size="23" font-family="BellMT, Bell MT"><tspan x="0" y="0">User Interface</tspan></text>
    <text id="User_Experience" data-name="User Experience" transform="translate(375 335.232)" fill="#707070" font-size="23" font-family="BellMT, Bell MT"><tspan x="0" y="0">User Experience</tspan></text>
    <text id="Interactive_Design" data-name="Interactive Design" transform="translate(365 361.232)" fill="#707070" font-size="23" font-family="BellMT, Bell MT"><tspan x="0" y="0">Interactive Design</tspan></text>
    <line id="Line_12-2" data-name="Line 12" y2="81.254" transform="translate(714.777 505.681)" fill="none" stroke="#707070" stroke-width="6"/>
    <line id="Line_13-2" data-name="Line 13" x2="505.687" transform="translate(714.777 586.935)" fill="none" stroke="#707070" stroke-width="6"/>
    <line id="Line_14-2" data-name="Line 14" y2="81.406" transform="translate(1220.465 505.529)" fill="none" stroke="#707070" stroke-width="6"/>
    <line id="Line_12-3" data-name="Line 12" y2="81.254" transform="translate(1230.104 505.681)" fill="none" stroke="#707070" stroke-width="6"/>
    <line id="Line_13-3" data-name="Line 13" x2="511.571" transform="translate(1230.104 586.935)" fill="none" stroke="#707070" stroke-width="6"/>
    <line id="Line_14-3" data-name="Line 14" y2="81.406" transform="translate(1741.676 505.529)" fill="none" stroke="#707070" stroke-width="6"/>
    <line id="Line_15" data-name="Line 15" y1="131.526" transform="translate(452.543 587.087)" fill="none" stroke="#707070" stroke-width="6"/>
    <g id="Path_17" data-name="Path 17" transform="translate(463.576 729.996) rotate(180)">
      <path id="Path_7" data-name="Path 7" d="M21.712,36.372H0L10.507,0Z" transform="translate(0.202 0.531)"/>
      <path id="Path_8" data-name="Path 8" d="M10.713,1.062.4,36.751h21.3l-11-35.689M10.7,0,22.12,37.055H0Z" transform="translate(0 0)" fill="#707070"/>
    </g>
    <line id="Line_15-2" data-name="Line 15" y1="131.526" transform="translate(967.406 587.087)" fill="none" stroke="#707070" stroke-width="6"/>
    <g id="Path_17-2" data-name="Path 17" transform="translate(978.439 729.996) rotate(180)">
      <path id="Path_9" data-name="Path 9" d="M21.712,36.372H0L10.507,0Z" transform="translate(0.202 0.531)"/>
      <path id="Path_10" data-name="Path 10" d="M10.713,1.062.4,36.751h21.3l-11-35.689M10.7,0,22.12,37.055H0Z" transform="translate(0 0)" fill="#707070"/>
    </g>
    <line id="Line_15-3" data-name="Line 15" y1="131.526" transform="translate(1483.789 587.087)" fill="none" stroke="#707070" stroke-width="6"/>
    <g id="Path_17-3" data-name="Path 17" transform="translate(1494.822 729.996) rotate(180)">
      <path id="Path_11" data-name="Path 11" d="M21.712,36.372H0L10.507,0Z" transform="translate(0.202 0.531)"/>
      <path id="Path_12" data-name="Path 12" d="M10.713,1.062.4,36.751h21.3l-11-35.689M10.7,0,22.12,37.055H0Z" transform="translate(0 0)" fill="#707070"/>
    </g>
    <text id="FULL_STACK_DESIGNER" data-name="FULL STACK DESIGNER" transform="translate(274.027 782.458)" fill="#707070" font-size="37" font-family="SegoeUI, Segoe UI"><tspan x="0" y="0">FULL STACK DESIGNER</tspan></text>
    <g id="noun_html_88031" transform="translate(380.883 821.379)">
      <g id="Group_15" data-name="Group 15">
        <path id="Path_13" data-name="Path 13" d="M18.021,59.612l36.328,14.5V85.424L4,65.509V53.876L54.349,33.8V45.272Z" transform="translate(-4 -22.487)"/>
        <path id="Path_14" data-name="Path 14" d="M76.618,26.859,49.053,100.79H37.9L65.465,26.7H76.618Z" transform="translate(16.114 -26.7)"/>
        <path id="Path_15" data-name="Path 15" d="M100.728,59.671,64.4,45.172V33.7l50.349,20.235V65.567L64.4,85.484V74.171Z" transform="translate(31.838 -22.547)"/>
      </g>
    </g>
    <text id="FULL_STACK_DEVELOPER" data-name="FULL STACK DEVELOPER" transform="translate(797.72 777.458)" fill="#707070" font-size="32" font-family="SegoeUI, Segoe UI"><tspan x="0" y="0">FULL STACK DEVELOPER</tspan></text>
    <g id="noun_cogs_1439837" transform="translate(911.276 799.868)">
      <g id="Group_14" data-name="Group 14" transform="translate(0 0)">
        <g id="Group_11" data-name="Group 11" transform="translate(0 23.854)">
          <path id="Path_9-2" data-name="Path 9" d="M-346.041,292.188a1.051,1.051,0,0,0-.954-.572l-8.4-1.336a23.349,23.349,0,0,0-1.908-4.58c.573-.763,1.334-1.908,2.481-3.244a30.453,30.453,0,0,0,2.29-3.053,2.711,2.711,0,0,0,.382-1.145,1.455,1.455,0,0,0-.382-.954,64.493,64.493,0,0,0-7.633-7.824,1.4,1.4,0,0,0-1.145-.382,2.713,2.713,0,0,0-1.145.382l-6.679,4.962c-1.334-.572-2.672-1.145-4.2-1.717l-1.334-8.588a1.051,1.051,0,0,0-.573-.954,2.713,2.713,0,0,0-1.145-.382h-10.305a1.521,1.521,0,0,0-1.717,1.334,58.208,58.208,0,0,0-1.334,8.588,16.2,16.2,0,0,0-4.2,1.717l-6.488-4.962a1.4,1.4,0,0,0-1.145-.382c-.763,0-2.1,1.145-4.389,3.244a42.189,42.189,0,0,0-4.58,4.962,2.712,2.712,0,0,0-.382,1.145,2.712,2.712,0,0,0,.382,1.145,53.807,53.807,0,0,1,4.961,6.488,40.848,40.848,0,0,0-1.908,4.2l-8.588,1.334c-.382,0-.573.191-.954.572a1.4,1.4,0,0,0-.382,1.145v10.305a2.712,2.712,0,0,0,.382,1.145,1.051,1.051,0,0,0,.954.572l8.4,1.334a23.341,23.341,0,0,0,1.908,4.58c-.573.763-1.334,1.908-2.481,3.244a30.447,30.447,0,0,0-2.29,3.053,2.712,2.712,0,0,0-.382,1.145,2.712,2.712,0,0,0,.382,1.145c1.145,1.717,3.817,4.2,7.633,7.824a1.649,1.649,0,0,0,1.145.572,2.712,2.712,0,0,0,1.145-.382l6.488-4.962c1.334.572,2.672,1.145,4.2,1.717l1.334,8.588a1.051,1.051,0,0,0,.572.954,2.712,2.712,0,0,0,1.145.382h10.305a1.521,1.521,0,0,0,1.717-1.334c.382-1.527.763-4.389,1.334-8.588a16.2,16.2,0,0,0,4.2-1.717l6.488,4.961a2.711,2.711,0,0,0,1.145.382c.763,0,2.1-1.145,4.389-3.244a42.189,42.189,0,0,0,4.58-4.962c.382-.382.382-.572.382-1.145a2.045,2.045,0,0,0-.382-1.145c-2.29-2.672-3.817-4.771-4.961-6.3.573-1.145,1.145-2.481,1.908-4.2l8.588-1.334a1.051,1.051,0,0,0,.954-.572,2.711,2.711,0,0,0,.382-1.145v-10.3A3.751,3.751,0,0,0-346.041,292.188Zm-35.3,21.946a15.8,15.8,0,0,1-11.211-4.628,15.8,15.8,0,0,1-4.628-11.211,15.8,15.8,0,0,1,4.628-11.211,15.8,15.8,0,0,1,11.211-4.628,15.8,15.8,0,0,1,11.211,4.628,15.8,15.8,0,0,1,4.628,11.211,15.923,15.923,0,0,1-15.839,15.839Z" transform="translate(417.421 -262.8)"/>
        </g>
        <g id="Group_12" data-name="Group 12" transform="translate(63.934)">
          <path id="Path_10-2" data-name="Path 10" d="M-339.633,269c-.191-.191-.382-.382-.572-.382l-5.343-.763-1.145-2.862c.382-.572.954-1.145,1.527-2.1.763-.954,1.145-1.527,1.527-1.908.191-.191.191-.382.191-.763,0-.191,0-.572-.191-.572a47.88,47.88,0,0,0-4.771-4.961.991.991,0,0,0-.763-.382c-.382,0-.572,0-.763.191l-4.2,3.053c-.763-.382-1.717-.763-2.672-1.145l-.763-5.343c0-.191-.191-.382-.382-.572s-.382-.191-.763-.191H-365.2c-.572,0-.954.191-.954.763a43.032,43.032,0,0,0-.763,5.343,16.088,16.088,0,0,0-2.672,1.145L-373.6,254.5a1.447,1.447,0,0,0-.763-.382c-.382,0-1.334.763-2.672,2.1s-2.29,2.481-2.862,3.053a.7.7,0,0,0-.191.572c0,.191,0,.382.382.763a37.451,37.451,0,0,1,3.053,4.007,8.082,8.082,0,0,0-1.145,2.672l-5.343.763c-.191,0-.382.191-.572.382a.7.7,0,0,0-.191.572v6.488a1.443,1.443,0,0,0,.191.763c.191.191.382.382.572.382l5.343.763a9,9,0,0,0,1.145,2.862c-.382.572-.954,1.145-1.527,2.1-.763.954-1.145,1.527-1.527,1.908-.191.191-.191.382-.191.763a.7.7,0,0,0,.191.572,33.912,33.912,0,0,0,4.771,4.961.992.992,0,0,0,.763.382c.382,0,.572,0,.763-.191l4.2-3.053c.763.382,1.717.763,2.672,1.145l.763,5.343c0,.191.191.382.382.572s.382.191.763.191h6.488c.572,0,.954-.191.954-.763a43.041,43.041,0,0,0,.763-5.343,16.078,16.078,0,0,0,2.672-1.145l4.007,3.244a1.147,1.147,0,0,0,.763.191c.382,0,1.334-.763,2.672-2.1a31.413,31.413,0,0,0,2.862-3.244.7.7,0,0,0,.191-.572.762.762,0,0,0-.382-.763c-1.334-1.717-2.481-3.053-3.053-4.007a18.6,18.6,0,0,0,1.145-2.672l5.343-.763c.191,0,.382-.191.572-.382a.7.7,0,0,0,.191-.572v-6.488A.7.7,0,0,0-339.633,269Zm-22.137,13.74a9.856,9.856,0,0,1-7.036-2.886,9.855,9.855,0,0,1-2.887-7.036,9.856,9.856,0,0,1,2.886-7.037,9.855,9.855,0,0,1,7.037-2.886,9.855,9.855,0,0,1,7.037,2.886,9.856,9.856,0,0,1,2.887,7.037,9.856,9.856,0,0,1-2.887,7.036,9.855,9.855,0,0,1-7.037,2.886Z" transform="translate(383.91 -250.301)"/>
        </g>
      </g>
    </g>
    <g id="Group_18" data-name="Group 18" transform="translate(1356.174 742.458)">
      <text id="ETHICAL_HACKER" data-name="ETHICAL HACKER" transform="translate(0 33)" fill="#707070" font-size="31" font-family="SegoeUI, Segoe UI"><tspan x="0" y="0">ETHICAL HACKER</tspan></text>
    </g>
    <g id="noun_Anonymous_Mask_1380961" data-name="noun_Anonymous Mask_1380961" transform="translate(1433.589 797.804)">
      <g id="Group_26" data-name="Group 26" transform="translate(0 0)">
        <g id="Group_25" data-name="Group 25" transform="translate(0 0)">
          <path id="Path_18" data-name="Path 18" d="M95.092,48.618c.236-6.354.471-13.649,0-21.886C94.385,12.611,62.851,11.2,55.791,11.2h-.236c-7.06.236-38.6,1.647-39.3,15.532-.471,8.237-.236,15.532,0,21.886,0,3.059.236,6.119.236,8.707v1.647h0a6.515,6.515,0,0,0,.236,2.118c1.647,19.533,14.826,41.89,38.36,47.538l.707.236.707-.236c23.533-5.648,36.712-28,38.36-47.538,0-.707.236-1.412.236-2.118h0V57.325C94.857,54.737,95.092,51.912,95.092,48.618ZM21.9,27.2c.236-6.825,20-10.355,34.124-10.59,14.12.236,33.653,3.765,34.124,10.59.471,8,.236,15.061,0,21.416,0,3.059-.236,6.119-.236,8.943a15.536,15.536,0,0,1-.236,3.295,11.6,11.6,0,0,1-23.063-1.648H61.44v6.119a5.413,5.413,0,0,1-10.825,0V59.208H45.437a11.595,11.595,0,0,1-23.063,1.647c0-1.179-.236-2.118-.236-3.295,0-2.589,0-5.648-.236-8.943C21.667,42.264,21.432,35.2,21.9,27.2ZM77.678,75.915c-1.412,2.354-2.589,4.236-3.295,4.471-1.883.943-8.472.943-10.825,0a35.672,35.672,0,0,1-4.471-4.942,11.11,11.11,0,0,0,6.354-5.413,16.943,16.943,0,0,0,12.237,5.885Zm-24.946-.471a35.674,35.674,0,0,1-4.471,4.942c-2.354,1.179-8.707,1.179-10.825,0-.707-.471-1.883-2.118-3.295-4.471a16.031,16.031,0,0,0,12-5.883,12.371,12.371,0,0,0,6.589,5.415Zm5.883,27.3V87.917H53.438v14.826c-14.356-4.7-24-16.706-28.241-29.415l2.824,1.412c1.412,2.824,4.707,8.707,7.531,10.355a17.9,17.9,0,0,0,7.531,1.412,24.957,24.957,0,0,0,8-1.179c1.647-.707,3.765-3.059,5.413-5.177,1.647,2.118,3.765,4.471,5.413,5.177,3.53,1.647,11.767,1.883,15.3,0,2.824-1.412,6.119-7.531,7.531-10.355a7.361,7.361,0,0,0,2.354-1.179c-4.707,12.242-14.356,24.244-28.476,28.95Z" transform="translate(-15.982 -11.199)"/>
          <path id="Path_19" data-name="Path 19" d="M32.955,21.777a9.189,9.189,0,0,1,9.178,9.178h5.178A14.413,14.413,0,0,0,32.955,16.6,14.568,14.568,0,0,0,18.6,30.955h5.177a9.345,9.345,0,0,1,9.178-9.178Z" transform="translate(-12.444 -3.891)"/>
          <path id="Path_20" data-name="Path 20" d="M49.555,21.777a9.189,9.189,0,0,1,9.178,9.178h5.177a14.355,14.355,0,1,0-28.711,0h5.177A9.189,9.189,0,0,1,49.555,21.777Z" transform="translate(10.022 -3.891)"/>
          <path id="Path_21" data-name="Path 21" d="M21.9,28.736a12.577,12.577,0,0,0,18.827,0,12.577,12.577,0,0,0-18.827,0Z" transform="translate(-7.978 6.8)"/>
          <path id="Path_22" data-name="Path 22" d="M36.1,28.736a12.577,12.577,0,0,0,18.827,0,12.577,12.577,0,0,0-18.827,0Z" transform="translate(11.24 6.8)"/>
        </g>
      </g>
    </g>
  </g>
</svg>
