<svg xmlns="http://www.w3.org/2000/svg" width="4862" height="2541.572" viewBox="0 0 4862 2541.572">
  <g id="Group_19" data-name="Group 19" transform="translate(-2414 -1145)">
    <line id="Line_4" data-name="Line 4" x2="4353" y2="1" transform="translate(2666.5 2552.5)" fill="none" stroke="#707070" stroke-linecap="round" stroke-width="17"/>
    <circle id="Ellipse_2" data-name="Ellipse 2" cx="66.5" cy="66.5" r="66.5" transform="translate(2600 2486)" fill="#78ede9"/>
    <circle id="Ellipse_8" data-name="Ellipse 8" cx="66.5" cy="66.5" r="66.5" transform="translate(3470 2486)" fill="#78ede9"/>
    <circle id="Ellipse_9" data-name="Ellipse 9" cx="66.5" cy="66.5" r="66.5" transform="translate(4341 2486)" fill="#78ede9"/>
    <circle id="Ellipse_10" data-name="Ellipse 10" cx="66.5" cy="66.5" r="66.5" transform="translate(5211 2486)" fill="#78ede9"/>
    <circle id="Ellipse_11" data-name="Ellipse 11" cx="66.5" cy="66.5" r="66.5" transform="translate(6082 2486)" fill="#78ede9"/>
    <circle id="Ellipse_12" data-name="Ellipse 12" cx="66.5" cy="66.5" r="66.5" transform="translate(6952 2486)" fill="#78ede9"/>
    <line id="Line_5" data-name="Line 5" y1="707" transform="translate(3536.5 1845.5)" fill="none" stroke="#707070" stroke-width="1"/>
    <line id="Line_6" data-name="Line 6" y1="560" transform="translate(2666.5 1992.5)" fill="none" stroke="#707070" stroke-width="1"/>
    <text id="prototype_UX_UI_ID" data-name="prototype
UX/UI/ID" transform="translate(2667 1817)" fill="#707070" font-size="106" font-family="BellMT, Bell MT"><tspan x="-211.482" y="0">prototype</tspan><tspan x="-252.837" y="118">UX/UI/ID</tspan></text>
    <text id="Front-end_Development" data-name="Front-end 
Development" transform="translate(3537 1641)" fill="#707070" font-size="106" font-family="BellMT, Bell MT"><tspan x="-235.757" y="0">Front-end </tspan><tspan x="-289.87" y="118">Development</tspan></text>
    <line id="Line_7" data-name="Line 7" y1="643" transform="translate(4407.5 2269.5)" fill="none" stroke="#707070" stroke-width="1"/>
    <text id="Back-end_Development_AR_VR" data-name="Back-end 
Development 
&amp;
AR/VR" transform="translate(4408 1654)" fill="#707070" font-size="106" font-family="BellMT, Bell MT"><tspan x="-213.656" y="0">Back-end </tspan><tspan x="-303.12" y="118">Development </tspan><tspan x="-36.438" y="236">&amp;</tspan><tspan x="-170.62" y="354">AR/VR</tspan></text>
    <text id="Machine_Learning_AI_" data-name="Machine Learning / AI
&amp;" transform="translate(5278 1234)" fill="#707070" font-size="106" font-family="BellMT, Bell MT"><tspan x="-507.382" y="0">Machine Learning / AI</tspan><tspan x="-36.438" y="118">&amp;</tspan></text>
    <line id="Line_8" data-name="Line 8" y1="931" transform="translate(5277.5 1621.5)" fill="none" stroke="#707070" stroke-width="1"/>
    <text id="System_Operation" data-name="System Operation" transform="translate(5279 1477)" fill="#707070" font-size="106" font-family="BellMT, Bell MT"><tspan x="-388.701" y="0">System Operation</tspan></text>
    <text id="Crittografia" transform="translate(7019 1994)" fill="#707070" font-size="106" font-family="BellMT, Bell MT"><tspan x="-256.175" y="0">Crittografia</tspan></text>
    <path id="Path_16" data-name="Path 16" d="M0,465.5V0" transform="translate(7018.5 2087)" fill="none" stroke="#707070" stroke-width="1"/>
    <line id="Line_11" data-name="Line 11" y1="643" transform="translate(6148.5 1909.5)" fill="none" stroke="#707070" stroke-width="1"/>
    <text id="Sicurezza" transform="translate(6149 1817)" fill="#707070" font-size="106" font-family="BellMT, Bell MT"><tspan x="-204.806" y="0">Sicurezza</tspan></text>
    <g id="Group_8" data-name="Group 8" transform="translate(0 10.5)">
      <line id="Line_12" data-name="Line 12" y2="348" transform="translate(2503.5 2542.5)" fill="none" stroke="#707070" stroke-width="6"/>
      <line id="Line_13" data-name="Line 13" x2="1209" transform="translate(2503.5 2890.5)" fill="none" stroke="#707070" stroke-width="6"/>
      <line id="Line_14" data-name="Line 14" y2="268" transform="translate(3712.5 2622.5)" fill="none" stroke="#707070" stroke-width="6"/>
    </g>
    <g id="Group_9" data-name="Group 9" transform="translate(899.833 110)">
      <line id="Line_12-2" data-name="Line 12" y2="348" transform="translate(2503.5 2542.5)" fill="none" stroke="#707070" stroke-width="6"/>
      <line id="Line_13-2" data-name="Line 13" x2="2048.667" transform="translate(2503.5 2890.5)" fill="none" stroke="#707070" stroke-width="6"/>
      <line id="Line_14-2" data-name="Line 14" y2="348" transform="translate(4552.167 2542.5)" fill="none" stroke="#707070" stroke-width="6"/>
    </g>
    <g id="Group_10" data-name="Group 10" transform="translate(2648.457 10.5)">
      <line id="Line_12-3" data-name="Line 12" y2="348" transform="translate(4554.593 2542.5)" fill="none" stroke="#707070" stroke-width="6"/>
      <line id="Line_13-3" data-name="Line 13" x1="2051.093" transform="translate(2503.5 2890.5)" fill="none" stroke="#707070" stroke-width="6"/>
      <line id="Line_14-3" data-name="Line 14" y2="268" transform="translate(2503.5 2622.5)" fill="none" stroke="#707070" stroke-width="6"/>
    </g>
    <line id="Line_15" data-name="Line 15" y1="433" transform="translate(3027.5 2901.5)" fill="none" stroke="#707070" stroke-width="6"/>
    <line id="Line_16" data-name="Line 16" y1="424" transform="translate(6158.5 2901.5)" fill="none" stroke="#707070" stroke-width="6"/>
    <line id="Line_17" data-name="Line 17" y1="254" transform="translate(4403.5 3000.5)" fill="none" stroke="#707070" stroke-width="6"/>
    <g id="Group_17" data-name="Group 17" transform="translate(-355 44)">
      <text id="FULL_STACK_DEVELOPER" data-name="FULL STACK DEVELOPER" transform="translate(4758 3410)" fill="#707070" font-size="86" font-family="RobotoCondensed-Regular, Roboto"><tspan x="-424.94" y="0">FULL STACK DEVELOPER</tspan></text>
      <g id="noun_cogs_1439837" transform="translate(4643.329 3457.907)">
        <g id="Group_14" data-name="Group 14" transform="translate(0 0)">
          <g id="Group_11" data-name="Group 11" transform="translate(0 46.074)">
            <path id="Path_9" data-name="Path 9" d="M-279.546,319.563a2.027,2.027,0,0,0-1.843-1.106l-16.218-2.58a45.1,45.1,0,0,0-3.686-8.846c1.106-1.474,2.58-3.686,4.792-6.266a58.815,58.815,0,0,0,4.423-5.9,5.238,5.238,0,0,0,.737-2.212,2.815,2.815,0,0,0-.737-1.843c-2.212-2.949-7-8.109-14.744-15.112a2.708,2.708,0,0,0-2.212-.737,5.239,5.239,0,0,0-2.212.737l-12.9,9.583c-2.58-1.106-5.16-2.212-8.109-3.317l-2.58-16.587a2.027,2.027,0,0,0-1.106-1.843,5.239,5.239,0,0,0-2.212-.737h-19.9c-1.843,0-2.949.737-3.317,2.58a112.427,112.427,0,0,0-2.58,16.587,31.3,31.3,0,0,0-8.109,3.317L-384.6,275.7a2.708,2.708,0,0,0-2.212-.737c-1.474,0-4.055,2.212-8.478,6.266-4.423,4.423-7.372,7.372-8.846,9.583a5.237,5.237,0,0,0-.737,2.212,5.237,5.237,0,0,0,.737,2.211,103.932,103.932,0,0,1,9.583,12.532,78.886,78.886,0,0,0-3.686,8.109l-16.587,2.58c-.737,0-1.106.369-1.843,1.106a2.708,2.708,0,0,0-.737,2.212v19.9a5.238,5.238,0,0,0,.737,2.212A2.027,2.027,0,0,0-414.82,345l16.218,2.58a45.1,45.1,0,0,0,3.686,8.846c-1.106,1.474-2.58,3.686-4.792,6.266a58.789,58.789,0,0,0-4.423,5.9,5.238,5.238,0,0,0-.737,2.212,5.238,5.238,0,0,0,.737,2.212c2.212,3.317,7.372,8.109,14.744,15.112a3.186,3.186,0,0,0,2.212,1.106,5.238,5.238,0,0,0,2.212-.737l12.532-9.583c2.58,1.106,5.16,2.212,8.109,3.317l2.58,16.587a2.027,2.027,0,0,0,1.106,1.843,5.237,5.237,0,0,0,2.212.737h19.9c1.843,0,2.949-.737,3.317-2.58.737-2.949,1.474-8.478,2.58-16.587a31.29,31.29,0,0,0,8.109-3.317l12.532,9.583a5.237,5.237,0,0,0,2.212.737c1.474,0,4.055-2.212,8.478-6.266,4.423-4.423,7.372-7.372,8.846-9.583.737-.737.737-1.106.737-2.212a3.951,3.951,0,0,0-.737-2.212c-4.423-5.16-7.372-9.215-9.583-12.164,1.106-2.212,2.212-4.792,3.686-8.109l16.587-2.58A2.027,2.027,0,0,0-279.915,345a5.238,5.238,0,0,0,.737-2.212v-19.9C-279.177,321.038-279.177,320.3-279.546,319.563Zm-68.19,42.388a30.518,30.518,0,0,1-30.593-30.593,30.518,30.518,0,0,1,30.593-30.593,30.518,30.518,0,0,1,30.593,30.593A30.755,30.755,0,0,1-347.736,361.952Z" transform="translate(417.4 -262.8)"/>
          </g>
          <g id="Group_12" data-name="Group 12" transform="translate(123.479)">
            <path id="Path_10" data-name="Path 10" d="M-298.387,286.422c-.369-.369-.737-.737-1.106-.737l-10.321-1.474-2.212-5.529c.737-1.106,1.843-2.212,2.949-4.055,1.474-1.843,2.212-2.949,2.949-3.686.369-.369.369-.737.369-1.474,0-.369,0-1.106-.369-1.106a92.489,92.489,0,0,0-9.215-9.583,1.915,1.915,0,0,0-1.474-.737c-.737,0-1.106,0-1.474.369l-8.109,5.9c-1.474-.737-3.317-1.474-5.16-2.212l-1.474-10.321c0-.369-.369-.737-.737-1.106s-.737-.369-1.474-.369h-12.532c-1.106,0-1.843.369-1.843,1.474a83.12,83.12,0,0,0-1.474,10.321,31.065,31.065,0,0,0-5.16,2.212l-7.74-5.9a2.794,2.794,0,0,0-1.474-.737c-.737,0-2.58,1.474-5.16,4.054s-4.423,4.792-5.529,5.9a1.354,1.354,0,0,0-.369,1.106c0,.369,0,.737.737,1.474a72.338,72.338,0,0,1,5.9,7.74,15.61,15.61,0,0,0-2.212,5.16l-10.321,1.474c-.369,0-.737.369-1.106.737a1.354,1.354,0,0,0-.368,1.106v12.532a2.787,2.787,0,0,0,.368,1.474c.369.369.737.737,1.106.737l10.321,1.474a17.375,17.375,0,0,0,2.212,5.529c-.737,1.106-1.843,2.212-2.949,4.055-1.474,1.843-2.212,2.949-2.949,3.686-.369.369-.369.737-.369,1.474a1.354,1.354,0,0,0,.369,1.106c1.474,2.212,4.423,5.16,9.215,9.583a1.915,1.915,0,0,0,1.474.737c.737,0,1.106,0,1.474-.369l8.109-5.9c1.474.737,3.317,1.474,5.16,2.212l1.474,10.321c0,.369.369.737.737,1.106s.737.369,1.474.369h12.532c1.106,0,1.843-.369,1.843-1.474a83.137,83.137,0,0,0,1.474-10.321,31.06,31.06,0,0,0,5.16-2.212l7.74,6.266a2.216,2.216,0,0,0,1.474.369c.737,0,2.58-1.474,5.16-4.055a60.678,60.678,0,0,0,5.529-6.266,1.354,1.354,0,0,0,.369-1.106,1.472,1.472,0,0,0-.737-1.474c-2.58-3.317-4.792-5.9-5.9-7.74a35.922,35.922,0,0,0,2.212-5.16l10.321-1.474c.369,0,.737-.369,1.106-.737a1.354,1.354,0,0,0,.369-1.106V287.528A1.354,1.354,0,0,0-298.387,286.422Zm-42.757,26.539a19.036,19.036,0,0,1-19.167-19.167,19.036,19.036,0,0,1,19.167-19.167,19.036,19.036,0,0,1,19.167,19.167A19.036,19.036,0,0,1-341.143,312.961Z" transform="translate(383.9 -250.3)"/>
          </g>
        </g>
      </g>
    </g>
    <g id="Group_16" data-name="Group 16" transform="translate(405 58.974)">
      <text id="FULL_STACK_DESIGNER" data-name="FULL STACK DESIGNER" transform="translate(2623 3455)" fill="#707070" font-size="86" font-family="RobotoCondensed-Regular, Roboto"><tspan x="-395.839" y="0">FULL STACK DESIGNER</tspan></text>
      <g id="noun_html_88031" transform="translate(2510.071 3505.023)">
        <g id="Group_15" data-name="Group 15" transform="translate(0 0)">
          <path id="Path_13" data-name="Path 13" d="M23.241,69.22l49.851,19.9v15.524L4,77.31V61.349L73.091,33.8V49.542Z" transform="translate(-4 -18.276)"/>
          <path id="Path_14" data-name="Path 14" d="M91.03,26.919,53.205,128.369H37.9L75.725,26.7H91.03Z" transform="translate(36.22 -26.7)"/>
          <path id="Path_15" data-name="Path 15" d="M114.251,69.339,64.4,49.442V33.7l69.091,27.768V77.429L64.4,104.759V89.236Z" transform="translate(67.661 -18.395)"/>
        </g>
      </g>
    </g>
    <g id="Group_18" data-name="Group 18" transform="translate(-1031.497 46.897)">
      <text id="ETHICAL_HACKER" data-name="ETHICAL HACKER" transform="translate(7190 3460)" fill="#707070" font-size="86" font-family="RobotoCondensed-Regular, Roboto"><tspan x="-304.569" y="0">ETHICAL HACKER</tspan></text>
      <g id="noun_mask_822988" transform="translate(7064.325 3507.763)">
        <path id="Path_12" data-name="Path 12" d="M262.95,36.122s-18.264,11.244-44.773,8.3-47.944-8.246-74.634,25.92c-26.69-34.169-48.124-28.867-74.634-25.92s-44.773-8.3-44.773-8.3C10,70.238,12.326,101.563,38.864,123.361,78.94,156.279,143.542,103.92,143.542,103.92s64.606,52.359,104.679,19.441C274.756,101.563,277.088,70.238,262.95,36.122ZM87.769,102.153c-20.017,0-37.715-25.983-37.715-25.983,9.427,7.6,21.208,1.241,37.715.064s32.978,14.312,32.978,14.312A52.97,52.97,0,0,1,87.769,102.153Zm111.543,0a52.97,52.97,0,0,1-32.978-11.608S182.8,75.056,199.312,76.233s28.291,7.529,37.715-.064C237.027,76.17,219.329,102.153,199.312,102.153Z" transform="translate(-15.566 -36.122)"/>
      </g>
    </g>
    <g id="Path_17" data-name="Path 17" transform="translate(3063.822 3444.957) rotate(180)">
      <path d="M 72.14455413818359 170.4736175537109 L 0.6648667454719543 170.4736175537109 L 35.25467300415039 50.73166275024414 L 72.14455413818359 170.4736175537109 Z" stroke="none"/>
      <path d="M 35.27008438110352 52.47996520996094 L 1.329757690429688 169.9736022949219 L 71.46730804443359 169.9736022949219 L 35.27008438110352 52.47996520996094 M 35.23925399780273 48.9833984375 L 72.82176971435547 170.9736022949219 L 7.62939453125e-06 170.9736022949219 L 35.23925399780273 48.9833984375 Z" stroke="none" fill="#707070"/>
    </g>
    <g id="Path_18" data-name="Path 18" transform="translate(4439.822 3383.957) rotate(180)">
      <path d="M 72.14455413818359 170.4736175537109 L 0.6648667454719543 170.4736175537109 L 35.25467300415039 50.73166275024414 L 72.14455413818359 170.4736175537109 Z" stroke="none"/>
      <path d="M 35.27008438110352 52.47996520996094 L 1.329757690429688 169.9736022949219 L 71.46730804443359 169.9736022949219 L 35.27008438110352 52.47996520996094 M 35.23925399780273 48.9833984375 L 72.82176971435547 170.9736022949219 L 7.62939453125e-06 170.9736022949219 L 35.23925399780273 48.9833984375 Z" stroke="none" fill="#707070"/>
    </g>
    <g id="Path_19" data-name="Path 19" transform="translate(6194.822 3444.957) rotate(180)">
      <path d="M 72.14455413818359 170.4736175537109 L 0.6648667454719543 170.4736175537109 L 35.25467300415039 50.73166275024414 L 72.14455413818359 170.4736175537109 Z" stroke="none"/>
      <path d="M 35.27008438110352 52.47996520996094 L 1.329757690429688 169.9736022949219 L 71.46730804443359 169.9736022949219 L 35.27008438110352 52.47996520996094 M 35.23925399780273 48.9833984375 L 72.82176971435547 170.9736022949219 L 7.62939453125e-06 170.9736022949219 L 35.23925399780273 48.9833984375 Z" stroke="none" fill="#707070"/>
    </g>
  </g>
</svg>
