<svg xmlns="http://www.w3.org/2000/svg" width="1356.782" height="305.415" viewBox="0 0 1356.782 305.415">
  <g id="Group_1" data-name="Group 1" transform="translate(-112.935 -377)">
    <line id="Line_26" data-name="Line 26" x2="591.225" transform="translate(230.18 539.059)" fill="none" stroke="#78ede9" stroke-width="70" stroke-dasharray="79 80" opacity="0.23"/>
    <line id="Line_1" data-name="Line 1" x2="607.21" transform="translate(214.195 539.059)" fill="none" stroke="#707070" stroke-linecap="round" stroke-width="17"/>
    <rect id="Rectangle_1" data-name="Rectangle 1" width="635.77" height="46.889" transform="translate(821.298 514.868)" fill="#78ede9" opacity="0.23"/>
    <g id="Group_28" data-name="Group 28" transform="translate(328.621 538.1) rotate(90)">
      <line id="Line_2" data-name="Line 2" y1="96.35" x2="92.856" transform="translate(0 17.223)" fill="none" stroke="#dbdbdb" stroke-width="11"/>
      <circle id="Ellipse_1" data-name="Ellipse 1" cx="17.473" cy="17.473" r="17.473" transform="translate(75.633)" fill="#dbdbdb"/>
    </g>
    <text id="interest_analisys" data-name="interest analisys" transform="translate(333.25 640.415)" fill="#707070" font-size="31" font-family="BellMT, Bell MT"><tspan x="0" y="0">Interest </tspan><tspan x="0" y="34">analisys</tspan></text>
    <text id="your_journey_starts_here" data-name="your journey
 starts here" transform="translate(112.935 403)" font-size="24" font-family="SegoeUI-Semibold, Segoe UI" font-weight="600"><tspan x="0" y="0">Your journey</tspan><tspan x="0" y="29" xml:space="preserve"> starts here</tspan></text>
    <text id="_..won_t_end_here" data-name="..won&apos;t end
      here" transform="translate(1352.1 632.505)" font-size="24" font-family="SegoeUI-Semibold, Segoe UI" font-weight="600"><tspan x="-27.768" y="0">Your </tspan><tspan x="-35.244" y="29">Career</tspan></text>
    <g id="Asset_1" data-name="Asset 1" transform="translate(146.738 447.105) rotate(8)">
      <g id="Layer_5" data-name="Layer 5" transform="translate(0 0)">
        <path id="Path_7" data-name="Path 7" d="M0,6.561A27.8,27.8,0,0,1,3.007,4.888c.965-.485,2.16-1,3.511-1.555A42.046,42.046,0,0,1,11.13,1.771,53.56,53.56,0,0,1,16.657.544c.987-.131,2-.3,3.039-.367.518-.039,1.044-.1,1.577-.118L22.883,0h1.638l1.664.059,1.685.19a16.74,16.74,0,0,1,1.7.223l1.718.289c.573.092,1.145.262,1.721.394a16.437,16.437,0,0,1,1.725.446l1.725.552.861.282.857.348,1.71.7c1.131.518,2.25,1.089,3.363,1.667l1.645.978c.544.335,1.08.617,1.62,1.01L48.1,8.248l.781.552c.263.184.511.407.767.6l1.5,1.233.742.6c.245.21.479.446.72.656l1.408,1.312c.465.446.933.853,1.365,1.312l2.56,2.769,2.311,2.841c.187.223.36.453.551.656l.515.715,1,1.463.947,1.312.465.656.421.656,1.541,2.434c.475.755.922,1.43,1.285,2.113l2.355,4.192a9.1,9.1,0,0,1,.051,7.867c-1.178,2.2-3.112,2.239-4.318.092-.061-.106-.118-.217-.173-.329l-.115-.243L62.828,37.6c-.3-.656-.677-1.312-1.08-2.093l-1.3-2.421-.36-.656-.385-.656L58.9,30.462l-.846-1.4-.443-.728-.475-.656-1.988-2.92L52.93,21.829c-.36-.512-.788-.951-1.2-1.424l-1.243-1.418c-.212-.236-.418-.492-.637-.722l-.659-.656-1.339-1.352c-.23-.223-.45-.466-.684-.656l-.72-.617-1.439-1.259c-.475-.446-.976-.787-1.473-1.181l-1.5-1.155c-1.019-.7-2.052-1.391-3.1-2.047l-1.588-.905-.8-.453-.807-.394-1.617-.781c-.54-.262-1.08-.446-1.631-.656S31.427,5.7,30.877,5.5l-1.636-.526a16.228,16.228,0,0,0-1.627-.459L25.993,4.1l-1.609-.3c-.533-.1-1.08-.2-1.588-.256l-1.552-.21c-.515-.053-1.03-.053-1.538-.118-1.019-.092-2.016-.079-2.989-.1a39.834,39.834,0,0,0-5.48.381c-1.7.236-3.241.531-4.627.846a30.2,30.2,0,0,0-3.547,1.01A24.528,24.528,0,0,0,0,6.561Z" transform="translate(0 0)"/>
        <path id="Path_8" data-name="Path 8" d="M0,21.75S14,44.431,20.85,36.564,14.542,0,14.542,0s5.212,24.066,2.742,27.766S0,21.75,0,21.75Z" transform="translate(55.602 19.303)"/>
      </g>
    </g>
    <path id="Path_23" data-name="Path 23" d="M0,0H635.663" transform="translate(821.405 539.059)" fill="none" stroke="#707070" stroke-linecap="round" stroke-width="17" stroke-dasharray="22"/>
    <g id="Group" transform="translate(1016.969 452.822)">
      <text id="Guaranteed_Employment_" data-name="Guaranteed Employment
" transform="translate(139.99 34)" fill="#707070" font-size="31" font-family="BellMT, Bell MT"><tspan x="-160.177" y="0">Guaranteed Employment</tspan><tspan x="0" y="34"></tspan></text>
    </g>
    <g id="Asset_1-2" data-name="Asset 1" transform="translate(1386.732 583.02) rotate(-8)">
      <g id="Layer_5-2" data-name="Layer 5" transform="translate(0 0)">
        <path id="Path_7-2" data-name="Path 7" d="M0,37.309a27.8,27.8,0,0,0,3.007,1.673c.965.485,2.16,1,3.511,1.555A42.047,42.047,0,0,0,11.13,42.1a53.56,53.56,0,0,0,5.528,1.227c.987.131,2,.3,3.039.367.518.039,1.044.1,1.577.118l1.609.059h1.638l1.664-.059,1.685-.19a16.739,16.739,0,0,0,1.7-.223l1.718-.289c.573-.092,1.145-.262,1.721-.394a16.436,16.436,0,0,0,1.725-.446l1.725-.552.861-.282.857-.348,1.71-.7c1.131-.518,2.25-1.089,3.363-1.667l1.645-.978c.544-.335,1.08-.617,1.62-1.01L48.1,35.622l.781-.552c.263-.184.511-.407.767-.6l1.5-1.233.742-.6c.245-.21.479-.446.72-.656l1.408-1.312c.465-.446.933-.853,1.365-1.312l2.56-2.769,2.311-2.841c.187-.223.36-.453.551-.656l.515-.715,1-1.463.947-1.312.465-.656.421-.656,1.541-2.434c.475-.755.922-1.43,1.285-2.113l2.355-4.192a9.1,9.1,0,0,0,.051-7.867c-1.178-2.2-3.112-2.239-4.318-.092-.061.106-.118.217-.173.329l-.115.243L62.828,6.269c-.3.656-.677,1.312-1.08,2.093l-1.3,2.421-.36.656-.385.656L58.9,13.407l-.846,1.4-.443.728-.475.656-1.988,2.92L52.93,22.041c-.36.512-.788.951-1.2,1.424l-1.243,1.418c-.212.236-.418.492-.637.722l-.659.656-1.339,1.352c-.23.223-.45.466-.684.656l-.72.617-1.439,1.259c-.475.446-.976.787-1.473,1.181l-1.5,1.155c-1.019.7-2.052,1.391-3.1,2.047l-1.588.905-.8.453-.807.394-1.617.781c-.54.262-1.08.446-1.631.656s-1.08.453-1.631.656l-1.636.526a16.228,16.228,0,0,1-1.627.459l-1.62.413-1.609.3c-.533.1-1.08.2-1.588.256l-1.552.21c-.515.053-1.03.053-1.538.118-1.019.092-2.016.079-2.989.1a39.834,39.834,0,0,1-5.48-.381c-1.7-.236-3.241-.531-4.627-.846a30.2,30.2,0,0,1-3.547-1.01A24.527,24.527,0,0,1,0,37.309Z" transform="translate(0 13.656)"/>
        <path id="Path_8-2" data-name="Path 8" d="M0,16.473S14-6.209,20.85,1.658s-6.308,36.564-6.308,36.564,5.212-24.066,2.742-27.766S0,16.473,0,16.473Z" transform="translate(55.602 0)"/>
      </g>
    </g>
    <g id="Ellipse_4" data-name="Ellipse 4" transform="translate(194.258 518.508)" fill="none" stroke="#78ede9" stroke-width="12">
      <circle cx="21.1" cy="21.1" r="21.1" stroke="none"/>
      <circle cx="21.1" cy="21.1" r="15.1" fill="none"/>
    </g>
    <g id="Group_28-2" data-name="Group 28" transform="translate(518.047 536.678) rotate(-90)">
      <line id="Line_2-2" data-name="Line 2" x2="92.856" y2="96.35" transform="translate(0 0)" fill="none" stroke="#dbdbdb" stroke-width="11"/>
      <ellipse id="Ellipse_1-2" data-name="Ellipse 1" cx="17.473" cy="17.473" rx="17.473" ry="17.473" transform="translate(75.633 78.628)" fill="#dbdbdb"/>
    </g>
    <text id="aptitude_test" data-name="aptitude test" transform="translate(671.476 408.322)" fill="#707070" font-size="31" font-family="BellMT, Bell MT"><tspan x="-59.412" y="0">Aptitude </tspan><tspan x="-23.417" y="34">test</tspan></text>
    <g id="Group_28-3" data-name="Group 28" transform="translate(831.621 540.1) rotate(90)">
      <line id="Line_2-3" data-name="Line 2" x2="92.856" y2="96.35" transform="translate(0 0)" fill="none" stroke="#dbdbdb" stroke-width="11"/>
      <ellipse id="Ellipse_1-3" data-name="Ellipse 1" cx="17.473" cy="17.473" rx="17.473" ry="17.473" transform="translate(75.633 78.628)" fill="#dbdbdb"/>
    </g>
    <text id="skill_evaluation" data-name="skill evaluation" transform="translate(802.984 640.415)" fill="#707070" font-size="31" font-family="BellMT, Bell MT"><tspan x="-32.453" y="0">Skill </tspan><tspan x="-65.391" y="34">evaluation</tspan></text>
    <g id="Ellipse_6" data-name="Ellipse 6" transform="translate(810.198 518.508)" fill="none" stroke="#78ede9" stroke-width="12">
      <circle cx="21.1" cy="21.1" r="21.1" stroke="none"/>
      <circle cx="21.1" cy="21.1" r="15.1" fill="none"/>
    </g>
    <g id="Ellipse_4-2" data-name="Ellipse 4" transform="translate(499.258 515.508)" fill="none" stroke="#78ede9" stroke-width="12">
      <circle cx="21.1" cy="21.1" r="21.1" stroke="none"/>
      <circle cx="21.1" cy="21.1" r="15.1" fill="none"/>
    </g>
  </g>
</svg>
