<svg xmlns="http://www.w3.org/2000/svg" width="5051.074" height="1426.801" viewBox="0 0 5051.074 1426.801">
  <g id="Group_35" data-name="Group 35" transform="translate(-6980.449 -115.391)">
    <path id="iconmonstr-bank-1" d="M410.244,1230.732H175.819V586.063H410.244ZM820.488,586.063H586.063v644.669H820.488Zm410.244,0H996.307v644.669h234.425Zm117.213,703.276H58.606v117.212H1347.945ZM0,527.457H1406.551L703.275,0Z" transform="translate(7007.449 126.641)" stroke="#fff" stroke-width="18"/>
    <path id="Path_30" data-name="Path 30" d="M27.547-264.258H83.281v148.945q0,68.867,60.539,68.867,26.906,0,42.6-18.418t15.7-50.449V-264.258h55.094v157.914q0,49.648-32.352,81.68T142.219,7.367q-51.25,0-82.961-32.031t-31.711-83.6ZM314.227,0V-264.258H368.68v43.883q24.023-26.586,43.563-38.918A79.94,79.94,0,0,1,455.8-271.625q35.875,0,61.34,23.7t25.465,57.016V0H486.875V-174.57q0-21.461-13.934-35.555t-35.395-14.094q-27.867,0-48.047,23.543T369.32-143.82V0Zm287.32-351.062q0-17.3,12.813-29.949a41.832,41.832,0,0,1,30.43-12.652q17.3,0,29.949,12.652t12.652,29.949a40.778,40.778,0,0,1-12.652,30.109q-12.652,12.492-29.949,12.492a42.1,42.1,0,0,1-30.43-12.492A40.529,40.529,0,0,1,601.547-351.062Zm15.7,86.8h55.094V0H617.242Zm111.148,0h58.392l75.589,152.794,73.452-152.794H994.57L861.48,9.93ZM1306.875-121.4h-225.5q7.367,40.68,33.473,59.418T1171.7-43.242q47.406,0,79.438-39.4l40.68,30.75q-45.8,59.258-122.68,59.258-58.937,0-98.656-40.359T1030.766-133.25q0-56.055,40.2-97.215t98.176-41.16q57.016,0,97.7,41.8T1306.875-121.4Zm-219.734-44.523h161.438q-26.906-54.453-79.437-54.453Q1111.8-220.375,1087.141-165.922Zm345.938-98.336V-209.8h0q18.578-32.672,36.355-47.246t46.285-14.574q8.008,0,23.063,3.844L1521.8-212.047q-16.016-3.2-21.141-3.2-28.187,0-47.246,19.7t-19.059,49.168V0h-55.734V-264.258Zm315.828,31.391L1711.75-200.2a196.224,196.224,0,0,0-24.984-15.535q-10.57-5.285-24.984-5.285-33.953,0-33.953,24.984,0,17.938,43.082,34.834t61.98,37.054q18.9,20.157,18.9,48.635,0,33.277-27.227,58.077T1660.5,7.367q-56.055,0-91.93-51.891l43.883-21.141q23.063,22.422,48.047,22.422,17.3,0,30.27-9.449t12.973-21.941q0-22.1-45.484-39.759t-62.941-35.745q-17.457-18.088-17.457-44.659,0-32.972,24.824-54.9t62.3-21.929Q1702.461-271.625,1748.906-232.867Zm48.688-118.2q0-17.3,12.813-29.949a41.832,41.832,0,0,1,30.43-12.652q17.3,0,29.949,12.652t12.652,29.949a40.778,40.778,0,0,1-12.652,30.109q-12.652,12.492-29.949,12.492a42.1,42.1,0,0,1-30.43-12.492A40.529,40.529,0,0,1,1797.594-351.062Zm15.7,86.8h55.094V0h-55.094ZM1969.6-341.133h55.734v76.875h55.094v50.93h-55.094V0H1969.6V-213.328h-43.883V-264.9H1969.6Zm382.453,76.875h55.734V0h-55.734V-52.531q-40.68,59.9-100.9,59.9-52.211,0-89.207-41t-37-99.617q0-55.414,37.316-96.895t87.605-41.48q31.07,0,58.938,16.977t43.242,44.2Zm7.688,132.93q0-36.2-25.993-61.98T2271.5-219.094q-35.3,0-61.613,25.625T2183.57-133.25q0,37.477,25.673,63.742T2271.5-43.242q36.26,0,62.253-26.105T2359.742-131.328Zm122.039,93.852a41.832,41.832,0,0,1,12.652-30.43,41.413,41.413,0,0,1,30.59-12.812q17.617,0,30.43,12.813t12.813,30.43a41.673,41.673,0,0,1-12.652,30.59,41.673,41.673,0,0,1-30.59,12.652,41.944,41.944,0,0,1-30.59-12.492Q2481.781-19.219,2481.781-37.477Zm171.367-303.656h55.734v76.875h55.094v50.93h-55.094V0h-55.734V-213.328h-43.883V-264.9h43.883ZM3076.922-121.4h-225.5q7.367,40.68,33.473,59.418t56.855,18.738q47.406,0,79.438-39.4l40.68,30.75q-45.8,59.258-122.68,59.258-58.938,0-98.656-40.359T2800.813-133.25q0-56.055,40.2-97.215t98.176-41.16q57.016,0,97.7,41.8T3076.922-121.4Zm-219.734-44.523h161.438q-26.906-54.453-79.437-54.453Q2881.852-220.375,2857.188-165.922Zm482.07,85.2v63.742q-42.6,24.344-82.641,24.344-54.773,0-95.934-41.16t-41.16-95.293q0-61.5,41-102.02t102.82-40.52q36.836,0,75.914,19.219v62.141q-41.961-26.906-79.437-26.906-34.594,0-60.539,24.344t-25.945,57.016q0,36.836,24.344,61.98t59.578,25.145Q3293.133-48.687,3339.258-80.719Zm41.961-335.047h55.734v194.75q23.063-26.586,43.082-38.6t48.848-12.012q33.633,0,58.137,25.785t24.5,61.66V0h-55.734V-168.484q0-24.984-12.652-40.039t-33.473-15.055q-30.109,0-51.41,22.742t-21.3,55.094V0h-55.734Z" transform="translate(8414 1151)" stroke="#fff" stroke-width="12"/>
  </g>
</svg>
