<svg xmlns="http://www.w3.org/2000/svg" width="1564.629" height="767.598" viewBox="0 0 1564.629 767.598">
  <g id="Group_1" data-name="Group 1" transform="translate(-184.94 -23.58)">
    <line id="Line_4" data-name="Line 4" x2="1547.629" transform="translate(193.44 481.077)" fill="none" stroke="#707070" stroke-linecap="round" stroke-width="17"/>
    <line id="Line_12" data-name="Line 12" y2="81.254" transform="translate(193.744 505.681)" fill="none" stroke="#707070" stroke-width="6"/>
    <line id="Line_13" data-name="Line 13" x2="512.336" transform="translate(193.5 586.935)" fill="none" stroke="#707070" stroke-width="6"/>
    <line id="Line_14" data-name="Line 14" y2="81.406" transform="translate(706.079 505.529)" fill="none" stroke="#707070" stroke-width="6"/>
    <line id="Line_12-2" data-name="Line 12" y2="81.254" transform="translate(714.777 505.681)" fill="none" stroke="#707070" stroke-width="6"/>
    <line id="Line_13-2" data-name="Line 13" x2="505.687" transform="translate(714.5 586.935)" fill="none" stroke="#707070" stroke-width="6"/>
    <line id="Line_14-2" data-name="Line 14" y2="81.406" transform="translate(1220.465 505.529)" fill="none" stroke="#707070" stroke-width="6"/>
    <line id="Line_12-3" data-name="Line 12" y2="81.254" transform="translate(1230.104 505.681)" fill="none" stroke="#707070" stroke-width="6"/>
    <line id="Line_13-3" data-name="Line 13" x2="511.571" transform="translate(1230.5 586.935)" fill="none" stroke="#707070" stroke-width="6"/>
    <text id="FULL_STACK_DESIGNER" data-name="FULL STACK DESIGNER" transform="translate(450 558)" fill="#707070" font-size="44" font-family="SegoeUI, Segoe UI"><tspan x="-137.65" y="0">FORMAZIONE</tspan></text>
    <g id="noun_education_1817512" transform="translate(349 633)">
      <path id="Path_28" data-name="Path 28" d="M83.622,64.031l-3.707-1.3L23.04,42.788l4.377,49.6c0,9.868,24.994,17.864,55.826,17.864s55.826-8,55.826-17.864L143.434,42.9,87.327,62.722Z" transform="translate(17.244 19.264)"/>
      <path id="Path_29" data-name="Path 29" d="M196.985,148.982a12.238,12.238,0,0,0-3.812-7.816,12.259,12.259,0,0,0-2.832-19.863V56.617l15.631-5.522L105.853,15,5,51.095,105.853,86.457l73.324-25.9V121.3a12.259,12.259,0,0,0-2.831,19.863,12.238,12.238,0,0,0-3.812,7.816h-.056l-2.233,22.33h29.031l-2.233-22.33Z" transform="translate(-5 -15)"/>
    </g>
    <g id="noun_direction_2093067" transform="translate(890 631)">
      <rect id="Rectangle_2" data-name="Rectangle 2" width="13.022" height="160.178" transform="translate(70.81)"/>
      <path id="Path_25" data-name="Path 25" d="M734.53,1.38h53.156l14.562,14.562v.5L787.686,31.006H734.53Z" transform="translate(-647.604 -1.217)" fill-rule="evenodd"/>
      <path id="Path_26" data-name="Path 26" d="M67.718,206.91H14.562L0,221.472v.5l14.562,14.561H67.718Z" transform="translate(0 -182.424)" fill-rule="evenodd"/>
      <path id="Path_27" data-name="Path 27" d="M734.53,412.44h53.156L802.248,427v.5l-14.562,14.562H734.53Z" transform="translate(-647.604 -363.631)" fill-rule="evenodd"/>
    </g>
    <path id="iconmonstr-bank-1" d="M121.429,364.288H52.041V173.471h69.388ZM242.859,173.471H173.471V364.288h69.388Zm121.429,0H294.9V364.288h69.388Zm34.694,208.165H17.347V416.33H398.981ZM0,156.124H416.329L208.165,0Z" transform="translate(759 34.83)" fill="#707070" stroke="#fff" stroke-width="18"/>
    <text id="FULL_STACK_DESIGNER-2" data-name="FULL STACK DESIGNER" transform="translate(967 558)" fill="#707070" font-size="44" font-family="SegoeUI, Segoe UI"><tspan x="-176.322" y="0">INDIRIZZAMENTO</tspan></text>
    <text id="FULL_STACK_DESIGNER-3" data-name="FULL STACK DESIGNER" transform="translate(1486 558)" fill="#707070" font-size="44" font-family="SegoeUI, Segoe UI"><tspan x="-98.463" y="0">CARRIERA</tspan></text>
    <g id="noun_contract_540382" transform="translate(1430 637)">
      <path id="Path_24" data-name="Path 24" d="M121.912,7H15.944A2.945,2.945,0,0,0,13,9.944V151.234a2.943,2.943,0,0,0,2.944,2.944H121.912a2.941,2.941,0,0,0,2.944-2.944V9.944A2.943,2.943,0,0,0,121.912,7ZM53.347,125.6a2.943,2.943,0,1,1-4.162,4.162l-3.807-3.807-3.807,3.807a2.943,2.943,0,1,1-4.162-4.162l3.807-3.807-3.807-3.807a2.943,2.943,0,1,1,4.162-4.162l3.807,3.807,3.807-3.807a2.943,2.943,0,1,1,4.162,4.162L49.541,121.8Zm45.016-.862H68.927a2.944,2.944,0,1,1,0-5.887H98.363a2.944,2.944,0,1,1,0,5.887Zm0-41.21H39.492a2.944,2.944,0,1,1,0-5.887H98.363a2.944,2.944,0,1,1,0,5.887Zm0-23.548H39.492a2.944,2.944,0,1,1,0-5.887H98.363a2.944,2.944,0,1,1,0,5.887Zm0-23.548H39.492a2.944,2.944,0,1,1,0-5.887H98.363a2.944,2.944,0,1,1,0,5.887Z" transform="translate(-13 -7)"/>
    </g>
    <line id="Line_1" data-name="Line 1" y1="125" x2="170" transform="translate(646.5 344.5)" fill="none" stroke="#78ede9" stroke-width="2"/>
    <line id="Line_2" data-name="Line 2" x1="169" y1="125" transform="translate(1111.5 344.5)" fill="none" stroke="#78ede9" stroke-width="2"/>
    <line id="Line_3" data-name="Line 3" y1="77" transform="translate(967.5 392.5)" fill="none" stroke="#78ede9" stroke-width="2"/>
  </g>
</svg>
