<svg xmlns="http://www.w3.org/2000/svg" width="1554" height="687.83" viewBox="0 0 1554 687.83"><g id="Group_1" data-name="Group 1" transform="translate(-183.364 -152.17)"><line id="Line_4" x2="1547.63" fill="none" stroke="#707070" stroke-width="17" data-name="Line 4" transform="translate(186.06 609.667)"/><line id="Line_12" y2="81.254" fill="none" stroke="#707070" stroke-width="6" data-name="Line 12" transform="translate(186.364 634.271)"/><line id="Line_13" x2="512.336" fill="none" stroke="#707070" stroke-width="6" data-name="Line 13" transform="translate(186.12 715.525)"/><line id="Line_14" y2="81.406" fill="none" stroke="#707070" stroke-width="6" data-name="Line 14" transform="translate(698.699 634.119)"/><line id="Line_12-2" y2="81.254" fill="none" stroke="#707070" stroke-width="6" data-name="Line 12" transform="translate(707.397 634.271)"/><line id="Line_13-2" x2="505.687" fill="none" stroke="#707070" stroke-width="6" data-name="Line 13" transform="translate(707.12 715.525)"/><line id="Line_14-2" y2="81.406" fill="none" stroke="#707070" stroke-width="6" data-name="Line 14" transform="translate(1213.085 634.119)"/><line id="Line_12-3" y2="81.254" fill="none" stroke="#707070" stroke-width="6" data-name="Line 12" transform="translate(1222.724 634.271)"/><line id="Line_13-3" x2="511.571" fill="none" stroke="#707070" stroke-width="6" data-name="Line 13" transform="translate(1223.12 715.525)"/><text id="FORMAZIONE" fill="#707070" font-family="SegoeUI, Segoe UI" font-size="44" transform="translate(304.97 686.59)"><tspan x="0" y="0">FORMAZIONE</tspan></text><g id="noun_education_1817512" opacity=".8" transform="translate(391.62 760)"><path id="Path_28" d="M54.452,53.448,52.529,52.8,23.04,42.788l2.269,24.89c0,4.952,12.959,8.964,28.946,8.964S83.2,72.628,83.2,67.678l2.263-24.834L56.373,52.791Z" data-name="Path 28" transform="translate(-2.825 -10.558)"/><path id="Path_29" d="M103.259,83.573a6.263,6.263,0,0,0-1.951-4,6.274,6.274,0,0,0-1.449-10.166V36.3l8-2.826L56.617,15,5,33.474l51.617,18.1L94.145,38.316V69.405A6.274,6.274,0,0,0,92.7,79.571a6.264,6.264,0,0,0-1.951,4h-.029L89.574,95h14.858l-1.143-11.429Z" data-name="Path 29" transform="translate(-5 -15)"/></g><g id="noun_direction_2093067" transform="translate(921.768 760)"><rect id="Rectangle_2" width="7.368" height="80" data-name="Rectangle 2" transform="translate(34.934)"/><path id="Path_25" fill-rule="evenodd" d="M734.53,1.38h30.075l8.239,8.239V9.9l-8.239,8.24H734.53Z" data-name="Path 25" transform="translate(-695.608 -1.288)"/><path id="Path_26" fill-rule="evenodd" d="M38.314,206.91H8.239L0,215.149v.283l8.239,8.238H38.314Z" data-name="Path 26" transform="translate(0 -195.049)"/><path id="Path_27" fill-rule="evenodd" d="M734.53,412.44h30.075l8.239,8.238v.283l-8.239,8.239H734.53Z" data-name="Path 27" transform="translate(-695.608 -388.797)"/></g><text id="INDIRIZZAMENTO" fill="#707070" font-family="SegoeUI, Segoe UI" font-size="44" transform="translate(783.298 686.59)"><tspan x="0" y="0">INDIRIZZAMENTO</tspan></text><text id="CARRIERA" fill="#707070" font-family="SegoeUI, Segoe UI" font-size="44" transform="translate(1380.157 686.59)"><tspan x="0" y="0">CARRIERA</tspan></text><g id="noun_contract_540382" transform="translate(1448.009 760)"><path id="Path_24" d="M72.2,7H14.6A1.6,1.6,0,0,0,13,8.6V85.4A1.6,1.6,0,0,0,14.6,87H72.2a1.6,1.6,0,0,0,1.6-1.6V8.6A1.6,1.6,0,0,0,72.2,7ZM34.931,71.466a1.6,1.6,0,1,1-2.262,2.262L30.6,71.659,28.53,73.728a1.6,1.6,0,1,1-2.262-2.262L28.337,69.4l-2.069-2.069a1.6,1.6,0,1,1,2.262-2.262L30.6,67.135l2.069-2.069a1.6,1.6,0,1,1,2.262,2.262L32.862,69.4ZM59.4,71h-16a1.6,1.6,0,1,1,0-3.2h16a1.6,1.6,0,1,1,0,3.2Zm0-22.4h-32a1.6,1.6,0,1,1,0-3.2h32a1.6,1.6,0,1,1,0,3.2Zm0-12.8h-32a1.6,1.6,0,1,1,0-3.2h32a1.6,1.6,0,1,1,0,3.2Zm0-12.8h-32a1.6,1.6,0,1,1,0-3.2h32a1.6,1.6,0,1,1,0,3.2Z" data-name="Path 24" transform="translate(-13 -7)"/></g><line id="Line_12-4" y2="81.254" fill="none" stroke="#707070" stroke-width="6" data-name="Line 12" transform="translate(1734.364 634.271)"/><path id="iconmonstr-bank-1" fill="#707070" stroke="#fff" stroke-width="18" d="M121.429,364.288H52.041V173.471h69.388Zm121.43-190.817H173.471V364.288h69.388Zm121.429,0H294.9V364.288h69.388Zm34.694,208.165H17.347V416.33H398.981ZM0,156.124H416.329L208.165,0Z" transform="translate(751.62 163.42)"/></g></svg>