<svg xmlns="http://www.w3.org/2000/svg" xmlns:xlink="http://www.w3.org/1999/xlink" version="1.1" x="0px" y="0px" viewBox="0 0 64 80" enable-background="new 0 0 64 64" xml:space="preserve"><g><path d="M50,7H14c-0.552,0-1,0.448-1,1v48c0,0.553,0.448,1,1,1h36c0.553,0,1-0.447,1-1V8C51,7.448,50.553,7,50,7z M26.707,47.293   c0.391,0.391,0.391,1.023,0,1.414C26.512,48.902,26.256,49,26,49s-0.512-0.098-0.707-0.293L24,47.414l-1.293,1.293   C22.512,48.902,22.256,49,22,49s-0.512-0.098-0.707-0.293c-0.391-0.391-0.391-1.023,0-1.414L22.586,46l-1.293-1.293   c-0.391-0.391-0.391-1.023,0-1.414s1.023-0.391,1.414,0L24,44.586l1.293-1.293c0.391-0.391,1.023-0.391,1.414,0   s0.391,1.023,0,1.414L25.414,46L26.707,47.293z M42,47H32c-0.552,0-1-0.447-1-1s0.448-1,1-1h10c0.553,0,1,0.447,1,1   S42.553,47,42,47z M42,33H22c-0.552,0-1-0.448-1-1s0.448-1,1-1h20c0.553,0,1,0.448,1,1S42.553,33,42,33z M42,25H22   c-0.552,0-1-0.448-1-1s0.448-1,1-1h20c0.553,0,1,0.448,1,1S42.553,25,42,25z M42,17H22c-0.552,0-1-0.448-1-1s0.448-1,1-1h20   c0.553,0,1,0.448,1,1S42.553,17,42,17z"/></g></svg>