<svg xmlns="http://www.w3.org/2000/svg" xmlns:xlink="http://www.w3.org/1999/xlink" version="1.1" x="0px" y="0px" viewBox="0 0 100 125" enable-background="new 0 0 100 100" xml:space="preserve"><path d="M50.17,52.301l-1.66-0.582l-25.47-8.931L25,65c0,4.419,11.193,8,25,8s25-3.581,25-8l1.955-22.16l-25.126,8.875L50.17,52.301  z"/><path d="M90.975,75c-0.124-1.377-0.757-2.604-1.707-3.5c1.064-1.003,1.732-2.422,1.732-4c0-2.136-1.221-3.983-3-4.895V33.637  l7-2.473L50.164,15L5,31.164L50.164,47L83,35.402v27.203c-1.779,0.911-3,2.759-3,4.895c0,1.578,0.668,2.997,1.732,4  c-0.95,0.896-1.583,2.123-1.707,3.5H80l-1,10h13l-1-10H90.975z"/></svg>