<svg xmlns="http://www.w3.org/2000/svg" width="3119.123" height="3116" viewBox="0 0 3119.123 3116">
  <g id="Group_37" data-name="Group 37" transform="translate(2408.123 -6551)">
    <rect id="Rectangle_5" data-name="Rectangle 5" width="2230" height="244" transform="translate(-1957 7904)" fill="#78ede9" opacity="0.37"/>
    <rect id="Rectangle_6" data-name="Rectangle 6" width="1800" height="244" transform="translate(-1957 8926)" fill="#78ede9" opacity="0.37"/>
    <rect id="Rectangle_4" data-name="Rectangle 4" width="2668" height="244" transform="translate(-1957 6876)" fill="#78ede9" opacity="0.37"/>
    <circle id="Ellipse_17" data-name="Ellipse 17" cx="325" cy="325" r="325" transform="translate(-2348 6551)" fill="#78ede9"/>
    <circle id="Ellipse_18" data-name="Ellipse 18" cx="325" cy="325" r="325" transform="translate(-2348 7533)" fill="#78ede9"/>
    <circle id="Ellipse_19" data-name="Ellipse 19" cx="325" cy="325" r="325" transform="translate(-2348 8514)" fill="#78ede9"/>
    <text id="Supporto_per_e_alla_tua_scelta_" data-name="Supporto per
e alla tua scelta " transform="translate(-1170 7854)" font-size="198" font-family="Roboto-Medium, Roboto" font-weight="500"><tspan x="0" y="0">Supporto per</tspan><tspan x="0" y="238">e alla tua scelta </tspan></text>
    <g id="noun_direction_2093067" transform="translate(-2388.215 7526)">
      <rect id="Rectangle_2" data-name="Rectangle 2" width="61.426" height="755.547" transform="translate(334.007)"/>
      <path id="Path_25" data-name="Path 25" d="M734.53,1.38H985.262l68.688,68.688v2.367l-68.688,68.688H734.53Z" transform="translate(-324.506 -0.61)" fill-rule="evenodd"/>
      <path id="Path_26" data-name="Path 26" d="M319.42,206.91H68.688L0,275.6v2.372l68.688,68.682H319.42Z" transform="translate(0 -91.41)" fill-rule="evenodd"/>
      <path id="Path_27" data-name="Path 27" d="M734.53,412.44H985.262l68.688,68.688v2.367l-68.688,68.688H734.53Z" transform="translate(-324.506 -182.21)" fill-rule="evenodd"/>
    </g>
    <g id="noun_contract_540382" transform="translate(-2266.342 8563.102)">
      <path id="Path_24" data-name="Path 24" d="M485.07,7H25.759A12.763,12.763,0,0,0,13,19.759V632.174a12.755,12.755,0,0,0,12.759,12.759H485.07a12.747,12.747,0,0,0,12.759-12.759V19.759A12.755,12.755,0,0,0,485.07,7ZM187.883,521.084a12.757,12.757,0,1,1-18.041,18.041l-16.5-16.5-16.5,16.5a12.757,12.757,0,0,1-18.041-18.041l16.5-16.5-16.5-16.5a12.757,12.757,0,0,1,18.041-18.041l16.5,16.5,16.5-16.5a12.757,12.757,0,1,1,18.041,18.041l-16.5,16.5ZM383,517.346H255.414a12.759,12.759,0,1,1,0-25.517H383a12.759,12.759,0,1,1,0,25.517Zm0-178.621H127.828a12.759,12.759,0,0,1,0-25.517H383a12.759,12.759,0,1,1,0,25.517Zm0-102.069H127.828a12.759,12.759,0,0,1,0-25.517H383a12.759,12.759,0,1,1,0,25.517Zm0-102.069H127.828a12.759,12.759,0,0,1,0-25.517H383a12.759,12.759,0,1,1,0,25.517Z" transform="translate(-13 -7)"/>
    </g>
    <text id="Contratto_Lavorativo" data-name="Contratto 
Lavorativo" transform="translate(-1163 8876)" font-size="198" font-family="Roboto-Medium, Roboto" font-weight="500"><tspan x="0" y="0">Contratto </tspan><tspan x="0" y="238">Lavorativo</tspan></text>
    <g id="noun_education_1817512" transform="translate(-2408.123 6602.998)">
      <path id="Path_28" data-name="Path 28" d="M254.888,124.084,240.7,119.111,23.04,42.788l16.75,189.82c0,37.764,95.653,68.366,213.645,68.366s213.645-30.6,213.645-68.366L483.787,43.232,269.065,119.076Z" transform="translate(131.126 194.683)"/>
      <path id="Path_29" data-name="Path 29" d="M739.726,527.749a46.834,46.834,0,0,0-14.588-29.91A46.916,46.916,0,0,0,714.3,421.824V174.268l59.821-21.134L390.963,15,5,153.135,390.963,288.466l280.61-99.114V421.824a46.916,46.916,0,0,0-10.836,76.015,46.834,46.834,0,0,0-14.588,29.91h-.214l-8.546,85.458h111.1l-8.546-85.458Z" transform="translate(-5 -15)"/>
    </g>
    <text id="Formazione_Al_Metodo_lavorativo_" data-name="Formazione
Al Metodo lavorativo " transform="translate(-1170 6832)" font-size="198" font-family="Roboto-Medium, Roboto" font-weight="500"><tspan x="0" y="0">Formazione</tspan><tspan x="0" y="238">Al Metodo lavorativo </tspan></text>
    <g id="Group_36" data-name="Group 36" transform="translate(10 -20)">
      <line id="Line_27" data-name="Line 27" y2="2943" transform="translate(-1328.5 6644.5)" fill="none" stroke="#000" stroke-width="23"/>
      <path id="Path_31" data-name="Path 31" d="M47.5,161.6l51,165H0Z" transform="translate(-1279.5 9848.598) rotate(180)"/>
    </g>
  </g>
</svg>
