<svg xmlns="http://www.w3.org/2000/svg" width="5508" height="2109.494" viewBox="0 0 5508 2109.494">
  <g id="Group_31" data-name="Group 31" transform="translate(-2441 -1693)">
    <line id="Line_7" data-name="Line 7" y1="321" transform="translate(2666.5 2231.5)" fill="none" stroke="#707070" stroke-width="1"/>
    <line id="Line_18" data-name="Line 18" y1="538" transform="translate(3515.5 2014.5)" fill="none" stroke="#707070" stroke-width="1"/>
    <line id="Line_19" data-name="Line 19" y1="261" transform="translate(4365.5 2291.5)" fill="none" stroke="#707070" stroke-width="1"/>
    <line id="Line_20" data-name="Line 20" y1="426" transform="translate(5214.5 2126.5)" fill="none" stroke="#707070" stroke-width="1"/>
    <line id="Line_21" data-name="Line 21" y1="321" transform="translate(6063.5 2231.5)" fill="none" stroke="#707070" stroke-width="1"/>
    <line id="Line_22" data-name="Line 22" y1="577" transform="translate(6912.5 1975.5)" fill="none" stroke="#707070" stroke-width="1"/>
    <line id="Line_23" data-name="Line 23" y1="267" transform="translate(7761.5 2285.5)" fill="none" stroke="#707070" stroke-width="1"/>
    <line id="Line_4" data-name="Line 4" x2="5095" transform="translate(2666.5 2552.5)" fill="none" stroke="#707070" stroke-linecap="round" stroke-width="17"/>
    <circle id="Ellipse_2" data-name="Ellipse 2" cx="66.5" cy="66.5" r="66.5" transform="translate(2600 2486)" fill="#78ede9"/>
    <circle id="Ellipse_8" data-name="Ellipse 8" cx="66.5" cy="66.5" r="66.5" transform="translate(3449 2486)" fill="#78ede9"/>
    <circle id="Ellipse_9" data-name="Ellipse 9" cx="66.5" cy="66.5" r="66.5" transform="translate(4298 2486)" fill="#78ede9"/>
    <circle id="Ellipse_10" data-name="Ellipse 10" cx="66.5" cy="66.5" r="66.5" transform="translate(5148 2486)" fill="#78ede9"/>
    <circle id="Ellipse_11" data-name="Ellipse 11" cx="66.5" cy="66.5" r="66.5" transform="translate(5997 2486)" fill="#78ede9"/>
    <circle id="Ellipse_12" data-name="Ellipse 12" cx="66.5" cy="66.5" r="66.5" transform="translate(6846 2486)" fill="#78ede9"/>
    <text id="Prototype_User_Interface" data-name="Prototype 
User Interface" transform="translate(2667 2074)" fill="#707070" font-size="77" font-family="BellMT, Bell MT"><tspan x="-167.667" y="0">Prototype </tspan><tspan x="-225.812" y="87">User Interface</tspan></text>
    <text id="Front-end_Development" data-name="Front-end 
Development" transform="translate(4365 2153)" fill="#707070" font-size="77" font-family="BellMT, Bell MT"><tspan x="-171.257" y="0">Front-end </tspan><tspan x="-210.566" y="87">Development</tspan></text>
    <text id="Back-end_Development_Augmented_Virtual_Reality" data-name="Back-end 
Development 
/
Augmented &amp; Virtual 
Reality" transform="translate(5214 1758)" fill="#707070" font-size="77" font-family="BellMT, Bell MT"><tspan x="-155.203" y="0">Back-end </tspan><tspan x="-220.191" y="87">Development </tspan><tspan x="-19.25" y="174">/</tspan><tspan x="-350.504" y="261">Augmented &amp; Virtual </tspan><tspan x="-112.699" y="348">Reality</tspan></text>
    <text id="System_Operation_Machine_Learning_Artificial_Intellingence" data-name="System Operation
/
Machine Learning
Artificial Intellingence" transform="translate(6063 1912)" fill="#707070" font-size="77" font-family="BellMT, Bell MT"><tspan x="-282.358" y="0">System Operation</tspan><tspan x="-19.25" y="87">/</tspan><tspan x="-289.164" y="174">Machine Learning</tspan><tspan x="-356.106" y="261">Artificial Intellingence</tspan></text>
    <text id="Crittografia" transform="translate(7762 2205)" fill="#707070" font-size="77" font-family="BellMT, Bell MT"><tspan x="-186.09" y="0">Crittografia</tspan></text>
    <text id="Sicurezza" transform="translate(6942 1897)" fill="#707070" font-size="77" font-family="BellMT, Bell MT"><tspan x="-148.774" y="0">Sicurezza</tspan></text>
    <g id="Group_8" data-name="Group 8" transform="translate(164 10.5)">
      <line id="Line_12" data-name="Line 12" y2="267.5" transform="translate(2503.5 2623)" fill="none" stroke="#707070" stroke-width="6"/>
      <line id="Line_13" data-name="Line 13" x2="1686.676" transform="translate(2503.5 2890.5)" fill="none" stroke="#707070" stroke-width="6"/>
      <line id="Line_14" data-name="Line 14" y2="268" transform="translate(4190.176 2622.5)" fill="none" stroke="#707070" stroke-width="6"/>
    </g>
    <circle id="Ellipse_13" data-name="Ellipse 13" cx="66.5" cy="66.5" r="66.5" transform="translate(7695 2486)" fill="#78ede9"/>
    <text id="User_Experience_Interactive_Design" data-name="User Experience
Interactive Design" transform="translate(3516 1866)" fill="#707070" font-size="77" font-family="BellMT, Bell MT"><tspan x="-261.905" y="0">User Experience</tspan><tspan x="-293.563" y="87">Interactive Design</tspan></text>
    <g id="Group_20" data-name="Group 20" transform="translate(1879.31 10.5)">
      <line id="Line_12-2" data-name="Line 12" y2="267.5" transform="translate(2503.5 2623)" fill="none" stroke="#707070" stroke-width="6"/>
      <line id="Line_13-2" data-name="Line 13" x2="1664.794" transform="translate(2503.5 2890.5)" fill="none" stroke="#707070" stroke-width="6"/>
      <line id="Line_14-2" data-name="Line 14" y2="268" transform="translate(4168.294 2622.5)" fill="none" stroke="#707070" stroke-width="6"/>
    </g>
    <g id="Group_21" data-name="Group 21" transform="translate(3575.838 10.5)">
      <line id="Line_12-3" data-name="Line 12" y2="267.5" transform="translate(2503.5 2623)" fill="none" stroke="#707070" stroke-width="6"/>
      <line id="Line_13-3" data-name="Line 13" x2="1684.162" transform="translate(2503.5 2890.5)" fill="none" stroke="#707070" stroke-width="6"/>
      <line id="Line_14-3" data-name="Line 14" y2="268" transform="translate(4187.662 2622.5)" fill="none" stroke="#707070" stroke-width="6"/>
    </g>
    <g id="Group_22" data-name="Group 22">
      <line id="Line_15" data-name="Line 15" y1="433" transform="translate(3519.5 2901.5)" fill="none" stroke="#707070" stroke-width="6"/>
      <g id="Path_17" data-name="Path 17" transform="translate(3555.822 3420.957) rotate(180)">
        <path d="M 72.14455413818359 170.4736175537109 L 0.6648667454719543 170.4736175537109 L 35.25467300415039 50.73166275024414 L 72.14455413818359 170.4736175537109 Z" stroke="none"/>
        <path d="M 35.27008438110352 52.47996520996094 L 1.329757690429688 169.9736022949219 L 71.46730804443359 169.9736022949219 L 35.27008438110352 52.47996520996094 M 35.23925399780273 48.9833984375 L 72.82176971435547 170.9736022949219 L 7.62939453125e-06 170.9736022949219 L 35.23925399780273 48.9833984375 Z" stroke="none" fill="#707070"/>
      </g>
    </g>
    <g id="Group_23" data-name="Group 23" transform="translate(1695)">
      <line id="Line_15-2" data-name="Line 15" y1="433" transform="translate(3519.5 2901.5)" fill="none" stroke="#707070" stroke-width="6"/>
      <g id="Path_17-2" data-name="Path 17" transform="translate(3555.822 3420.957) rotate(180)">
        <path d="M 72.14455413818359 170.4736175537109 L 0.6648667454719543 170.4736175537109 L 35.25467300415039 50.73166275024414 L 72.14455413818359 170.4736175537109 Z" stroke="none"/>
        <path d="M 35.27008438110352 52.47996520996094 L 1.329757690429688 169.9736022949219 L 71.46730804443359 169.9736022949219 L 35.27008438110352 52.47996520996094 M 35.23925399780273 48.9833984375 L 72.82176971435547 170.9736022949219 L 7.62939453125e-06 170.9736022949219 L 35.23925399780273 48.9833984375 Z" stroke="none" fill="#707070"/>
      </g>
    </g>
    <g id="Group_24" data-name="Group 24" transform="translate(3395)">
      <line id="Line_15-3" data-name="Line 15" y1="433" transform="translate(3519.5 2901.5)" fill="none" stroke="#707070" stroke-width="6"/>
      <g id="Path_17-3" data-name="Path 17" transform="translate(3555.822 3420.957) rotate(180)">
        <path d="M 72.14455413818359 170.4736175537109 L 0.6648667454719543 170.4736175537109 L 35.25467300415039 50.73166275024414 L 72.14455413818359 170.4736175537109 Z" stroke="none"/>
        <path d="M 35.27008438110352 52.47996520996094 L 1.329757690429688 169.9736022949219 L 71.46730804443359 169.9736022949219 L 35.27008438110352 52.47996520996094 M 35.23925399780273 48.9833984375 L 72.82176971435547 170.9736022949219 L 7.62939453125e-06 170.9736022949219 L 35.23925399780273 48.9833984375 Z" stroke="none" fill="#707070"/>
      </g>
    </g>
    <g id="Group_16" data-name="Group 16" transform="translate(889 51)">
      <text id="FULL_STACK_DESIGNER" data-name="FULL STACK DESIGNER" transform="translate(2623 3455)" fill="#707070" font-size="86" font-family="RobotoCondensed-Regular, Roboto"><tspan x="-395.839" y="0">FULL STACK DESIGNER</tspan></text>
      <g id="noun_html_88031" transform="translate(2454.626 3530)">
        <g id="Group_15" data-name="Group 15" transform="translate(0 0)">
          <path id="Path_13" data-name="Path 13" d="M33.847,88.746l77.332,30.865v24.081L4,101.3V76.536L111.179,33.8V58.221Z" transform="translate(-4 -9.719)"/>
          <path id="Path_14" data-name="Path 14" d="M120.319,27.039,61.642,184.416H37.9L96.577,26.7h23.742Z" transform="translate(77.08 -26.7)"/>
          <path id="Path_15" data-name="Path 15" d="M141.732,88.985,64.4,58.121V33.7L171.579,76.775v24.76L64.4,143.932V119.85Z" transform="translate(140.462 -9.958)"/>
        </g>
      </g>
    </g>
    <g id="Group_17" data-name="Group 17" transform="translate(494 96)">
      <text id="FULL_STACK_DEVELOPER" data-name="FULL STACK DEVELOPER" transform="translate(4758 3410)" fill="#707070" font-size="86" font-family="RobotoCondensed-Regular, Roboto"><tspan x="-424.94" y="0">FULL STACK DEVELOPER</tspan></text>
      <g id="noun_cogs_1439837" transform="translate(4613.958 3459)">
        <g id="Group_14" data-name="Group 14" transform="translate(0 0)">
          <g id="Group_11" data-name="Group 11" transform="translate(0 59.002)">
            <path id="Path_9" data-name="Path 9" d="M-240.867,335.49a2.6,2.6,0,0,0-2.36-1.416L-264,330.77a57.752,57.752,0,0,0-4.72-11.328c1.416-1.888,3.3-4.72,6.136-8.024a75.316,75.316,0,0,0,5.664-7.552,6.708,6.708,0,0,0,.944-2.832,3.6,3.6,0,0,0-.944-2.36c-2.832-3.776-8.968-10.384-18.881-19.353a3.468,3.468,0,0,0-2.832-.944,6.709,6.709,0,0,0-2.832.944l-16.52,12.272c-3.3-1.416-6.608-2.832-10.384-4.248l-3.3-21.241a2.6,2.6,0,0,0-1.416-2.36,6.709,6.709,0,0,0-2.832-.944h-25.489c-2.36,0-3.776.944-4.248,3.3a143.974,143.974,0,0,0-3.3,21.241,40.077,40.077,0,0,0-10.384,4.248l-16.048-12.272a3.468,3.468,0,0,0-2.832-.944c-1.888,0-5.192,2.832-10.856,8.024-5.664,5.664-9.44,9.44-11.328,12.272a6.707,6.707,0,0,0-.944,2.832,6.707,6.707,0,0,0,.944,2.832c5.192,6.136,9.44,11.328,12.272,16.048a101.021,101.021,0,0,0-4.72,10.384l-21.241,3.3c-.944,0-1.416.472-2.36,1.416a3.468,3.468,0,0,0-.944,2.832v25.489a6.707,6.707,0,0,0,.944,2.832,2.6,2.6,0,0,0,2.36,1.416l20.769,3.3a57.746,57.746,0,0,0,4.72,11.328c-1.416,1.888-3.3,4.72-6.136,8.024a75.29,75.29,0,0,0-5.664,7.552,6.708,6.708,0,0,0-.944,2.832,6.708,6.708,0,0,0,.944,2.832c2.832,4.248,9.44,10.384,18.881,19.353a4.079,4.079,0,0,0,2.832,1.416,6.708,6.708,0,0,0,2.832-.944l16.048-12.272c3.3,1.416,6.608,2.832,10.384,4.248l3.3,21.241a2.6,2.6,0,0,0,1.416,2.36,6.707,6.707,0,0,0,2.832.944h25.489c2.36,0,3.776-.944,4.248-3.3.944-3.776,1.888-10.856,3.3-21.241a40.069,40.069,0,0,0,10.384-4.248l16.048,12.272a6.707,6.707,0,0,0,2.832.944c1.888,0,5.192-2.832,10.856-8.024,5.664-5.664,9.44-9.44,11.328-12.272.944-.944.944-1.416.944-2.832a5.06,5.06,0,0,0-.944-2.832c-5.664-6.608-9.44-11.8-12.272-15.576,1.416-2.832,2.832-6.136,4.72-10.384l21.241-3.3a2.6,2.6,0,0,0,2.36-1.416,6.708,6.708,0,0,0,.944-2.832V339.738C-240.395,337.378-240.395,336.434-240.867,335.49Zm-87.323,54.282a39.081,39.081,0,0,1-39.177-39.177,39.081,39.081,0,0,1,39.177-39.177,39.081,39.081,0,0,1,39.177,39.177A39.384,39.384,0,0,1-328.189,389.772Z" transform="translate(417.4 -262.8)"/>
          </g>
          <g id="Group_12" data-name="Group 12" transform="translate(158.125)">
            <path id="Path_10" data-name="Path 10" d="M-274.393,296.557c-.472-.472-.944-.944-1.416-.944l-13.216-1.888-2.832-7.08c.944-1.416,2.36-2.832,3.776-5.192,1.888-2.36,2.832-3.776,3.776-4.72.472-.472.472-.944.472-1.888,0-.472,0-1.416-.472-1.416a118.44,118.44,0,0,0-11.8-12.272,2.452,2.452,0,0,0-1.888-.944c-.944,0-1.416,0-1.888.472l-10.384,7.552c-1.888-.944-4.248-1.888-6.608-2.832l-1.888-13.216c0-.472-.472-.944-.944-1.416s-.944-.472-1.888-.472h-16.048c-1.416,0-2.36.472-2.36,1.888a106.44,106.44,0,0,0-1.888,13.216,39.782,39.782,0,0,0-6.608,2.832l-9.912-7.552a3.578,3.578,0,0,0-1.888-.944c-.944,0-3.3,1.888-6.608,5.192s-5.664,6.136-7.08,7.552a1.734,1.734,0,0,0-.472,1.416c0,.472,0,.944.944,1.888a92.642,92.642,0,0,1,7.552,9.912,19.99,19.99,0,0,0-2.832,6.608l-13.216,1.888c-.472,0-.944.472-1.416.944a1.734,1.734,0,0,0-.472,1.416v16.048a3.569,3.569,0,0,0,.472,1.888c.472.472.944.944,1.416.944l13.216,1.888a22.25,22.25,0,0,0,2.832,7.08c-.944,1.416-2.36,2.832-3.776,5.192-1.888,2.36-2.832,3.776-3.776,4.72-.472.472-.472.944-.472,1.888a1.733,1.733,0,0,0,.472,1.416c1.888,2.832,5.664,6.608,11.8,12.272a2.453,2.453,0,0,0,1.888.944c.944,0,1.416,0,1.888-.472l10.384-7.552c1.888.944,4.248,1.888,6.608,2.832l1.888,13.216c0,.472.472.944.944,1.416s.944.472,1.888.472h16.048c1.416,0,2.36-.472,2.36-1.888a106.469,106.469,0,0,0,1.888-13.216,39.774,39.774,0,0,0,6.608-2.832l9.912,8.024a2.838,2.838,0,0,0,1.888.472c.944,0,3.3-1.888,6.608-5.192a77.71,77.71,0,0,0,7.08-8.024,1.734,1.734,0,0,0,.472-1.416,1.885,1.885,0,0,0-.944-1.888c-3.3-4.248-6.136-7.552-7.552-9.912a46,46,0,0,0,2.832-6.608l13.216-1.888c.472,0,.944-.472,1.416-.944a1.734,1.734,0,0,0,.472-1.416V297.973A1.734,1.734,0,0,0-274.393,296.557Zm-54.754,33.985A24.377,24.377,0,0,1-353.691,306a24.377,24.377,0,0,1,24.545-24.545A24.377,24.377,0,0,1-304.6,306,24.377,24.377,0,0,1-329.146,330.542Z" transform="translate(383.9 -250.3)"/>
          </g>
        </g>
      </g>
    </g>
    <g id="Group_27" data-name="Group 27" transform="translate(0.496 -49.897)">
      <g id="Group_18" data-name="Group 18" transform="translate(-289.497 95.897)">
        <text id="ETHICAL_HACKER" data-name="ETHICAL HACKER" transform="translate(7190 3460)" fill="#707070" font-size="86" font-family="RobotoCondensed-Regular, Roboto"><tspan x="-304.569" y="0">ETHICAL HACKER</tspan></text>
      </g>
      <g id="noun_Anonymous_Mask_1380961" data-name="noun_Anonymous Mask_1380961" transform="translate(6038.934 3245.584)">
        <g id="Group_26" data-name="Group 26" transform="translate(754.066 358.2)">
          <g id="Group_25" data-name="Group 25">
            <path id="Path_18" data-name="Path 18" d="M217.359,106.449c.6-16.174,1.2-34.745,0-55.712-1.8-35.943-82.07-39.538-100.042-39.538h-.6c-17.972.6-98.245,4.193-100.042,39.538-1.2,20.967-.6,39.538,0,55.712,0,7.788.6,15.575.6,22.165v4.193h0a16.585,16.585,0,0,0,.6,5.391c4.193,49.721,37.74,106.632,97.646,121.009l1.8.6,1.8-.6c59.905-14.377,93.452-71.287,97.646-121.009,0-1.8.6-3.594.6-5.391h0v-4.193C216.76,122.025,217.359,114.836,217.359,106.449ZM31.054,51.936c.6-17.373,50.92-26.358,86.863-26.957,35.943.6,85.665,9.585,86.863,26.957,1.2,20.368.6,38.339,0,54.514,0,7.788-.6,15.575-.6,22.764a39.549,39.549,0,0,1-.6,8.387c-1.8,14.377-14.377,25.16-29.354,25.16a29.4,29.4,0,0,1-29.354-29.354H131.695v15.575a13.778,13.778,0,0,1-27.556,0V133.407H90.959A29.515,29.515,0,0,1,32.252,137.6c0-3-.6-5.391-.6-8.387,0-6.59,0-14.377-.6-22.764C30.454,90.275,29.855,72.3,31.054,51.936Zm141.976,124c-3.594,5.991-6.59,10.783-8.387,11.382-4.792,2.4-21.566,2.4-27.556,0-1.8-1.2-6.59-6.59-11.382-12.58a28.282,28.282,0,0,0,16.174-13.778A43.128,43.128,0,0,0,173.029,175.94Zm-63.5-1.2c-4.792,5.991-9.585,11.382-11.382,12.58-5.991,3-22.165,3-27.556,0-1.8-1.2-4.792-5.391-8.387-11.382,12.58-.6,23.363-5.991,30.552-14.976C96.949,167.553,102.341,172.345,109.53,174.742Zm14.976,69.49v-37.74H111.327v37.74C74.784,232.251,50.223,201.7,39.44,169.35l7.189,3.594c3.594,7.189,11.981,22.165,19.17,26.358,4.792,2.4,11.981,3.594,19.17,3.594,7.788,0,15.575-1.2,20.368-3,4.193-1.8,9.585-7.788,13.778-13.179,4.193,5.391,9.585,11.382,13.778,13.179,8.986,4.193,29.953,4.792,38.938,0,7.189-3.594,15.575-19.17,19.17-26.358a18.737,18.737,0,0,0,5.991-3C185.01,201.7,160.449,232.251,124.506,244.232Z" transform="translate(-15.985 -11.2)"/>
            <path id="Path_19" data-name="Path 19" d="M55.142,29.779A23.392,23.392,0,0,1,78.505,53.142H91.685A36.688,36.688,0,0,0,55.142,16.6C35.374,16.6,18.6,33.373,18.6,53.142H31.779A23.789,23.789,0,0,1,55.142,29.779Z" transform="translate(-2.932 15.749)"/>
            <path id="Path_20" data-name="Path 20" d="M71.742,29.779A23.392,23.392,0,0,1,95.105,53.142h13.179a36.542,36.542,0,1,0-73.084,0H48.379A23.392,23.392,0,0,1,71.742,29.779Z" transform="translate(79.911 15.749)"/>
            <path id="Path_21" data-name="Path 21" d="M21.9,35.283a32.016,32.016,0,0,0,47.924,0,32.016,32.016,0,0,0-47.924,0Z" transform="translate(13.537 55.174)"/>
            <path id="Path_22" data-name="Path 22" d="M36.1,35.283a32.016,32.016,0,0,0,47.924,0,32.016,32.016,0,0,0-47.924,0Z" transform="translate(84.402 55.174)"/>
          </g>
        </g>
      </g>
    </g>
  </g>
</svg>
