<svg xmlns="http://www.w3.org/2000/svg" width="7166.834" height="2176" viewBox="0 0 7166.834 2176">
  <g id="Group_7" data-name="Group 7" transform="translate(-849.166 -1289)">
    <text id="interest_analisys" data-name="interest analisys" transform="translate(1185 2134)" fill="#707070" font-size="151" font-family="BellMT, Bell MT"><tspan x="0" y="0">interest analisys</tspan></text>
    <g id="Group_1" data-name="Group 1">
      <line id="Line_2" data-name="Line 2" y1="193" x2="186" transform="translate(917.5 2177.5)" fill="none" stroke="#dbdbdb" stroke-width="11"/>
      <circle id="Ellipse_1" data-name="Ellipse 1" cx="35" cy="35" r="35" transform="translate(1069 2143)" fill="#dbdbdb"/>
    </g>
    <g id="Group_2" data-name="Group 2" transform="translate(3918 1445.5) rotate(90)">
      <line id="Line_2-2" data-name="Line 2" y1="193" x2="186" transform="translate(917.5 2177.5)" fill="none" stroke="#dbdbdb" stroke-width="11"/>
      <circle id="Ellipse_1-2" data-name="Ellipse 1" cx="35" cy="35" r="35" transform="translate(1069 2143)" fill="#dbdbdb"/>
    </g>
    <text id="aptitude_test" data-name="aptitude test" transform="translate(1800 2683)" fill="#707070" font-size="151" font-family="BellMT, Bell MT"><tspan x="0" y="0">aptitude test</tspan></text>
    <text id="skill_evaluation" data-name="skill evaluation" transform="translate(4985 2134)" fill="#707070" font-size="151" font-family="BellMT, Bell MT"><tspan x="0" y="0">skill evaluation</tspan></text>
    <g id="Group_3" data-name="Group 3" transform="translate(3824)">
      <line id="Line_2-3" data-name="Line 2" y1="193" x2="186" transform="translate(917.5 2177.5)" fill="none" stroke="#dbdbdb" stroke-width="11"/>
      <circle id="Ellipse_1-3" data-name="Ellipse 1" cx="35" cy="35" r="35" transform="translate(1069 2143)" fill="#dbdbdb"/>
    </g>
    <text id="employment_" data-name="employment*" transform="translate(6342 2636)" fill="#707070" font-size="151" font-family="BellMT, Bell MT"><tspan x="0" y="0">employment*</tspan></text>
    <g id="Group_4" data-name="Group 4" transform="translate(8439 1453.5) rotate(90)">
      <line id="Line_2-4" data-name="Line 2" y1="193" x2="186" transform="translate(917.5 2177.5)" fill="none" stroke="#dbdbdb" stroke-width="11"/>
      <circle id="Ellipse_1-4" data-name="Ellipse 1" cx="35" cy="35" r="35" transform="translate(1069 2143)" fill="#dbdbdb"/>
    </g>
    <line id="Line_1" data-name="Line 1" x2="5166" transform="translate(910.5 2367.5)" fill="none" stroke="#707070" stroke-linecap="round" stroke-width="17"/>
    <line id="Line_3" data-name="Line 3" x2="1989" transform="translate(6018.5 2367.5)" fill="none" stroke="#707070" stroke-linecap="round" stroke-width="17" stroke-dasharray="43"/>
    <circle id="Ellipse_2" data-name="Ellipse 2" cx="66.5" cy="66.5" r="66.5" transform="translate(852 2299)" fill="#78ede9"/>
    <g id="Ellipse_3" data-name="Ellipse 3" transform="translate(1463 2257)" fill="none" stroke="#78ede9" stroke-width="12">
      <circle cx="99" cy="99" r="99" stroke="none"/>
      <circle cx="99" cy="99" r="93" fill="none"/>
    </g>
    <g id="Ellipse_4" data-name="Ellipse 4" transform="translate(1463 2257)" fill="none" stroke="#78ede9" stroke-width="12">
      <circle cx="99" cy="99" r="99" stroke="none"/>
      <circle cx="99" cy="99" r="93" fill="none"/>
    </g>
    <g id="Ellipse_5" data-name="Ellipse 5" transform="translate(4654 2257)" fill="none" stroke="#78ede9" stroke-width="12">
      <circle cx="99" cy="99" r="99" stroke="none"/>
      <circle cx="99" cy="99" r="93" fill="none"/>
    </g>
    <g id="Ellipse_6" data-name="Ellipse 6" transform="translate(4654 2257)" fill="none" stroke="#78ede9" stroke-width="12">
      <circle cx="99" cy="99" r="99" stroke="none"/>
      <circle cx="99" cy="99" r="93" fill="none"/>
    </g>
    <circle id="Ellipse_7" data-name="Ellipse 7" cx="66.5" cy="66.5" r="66.5" transform="translate(6002 2299)" fill="#78ede9"/>
    <text id="your_journey_starts_here" data-name="your journey
 starts here" transform="translate(1538 1399)" font-size="116" font-family="Roboto-Medium, Roboto" font-weight="500"><tspan x="0" y="0">your journey</tspan><tspan x="0" y="139" xml:space="preserve"> starts here</tspan></text>
    <text id="_..wont_end_here" data-name="..wont end
      here" transform="translate(6002 3297)" font-size="116" font-family="Roboto-Medium, Roboto" font-weight="500"><tspan x="0" y="0">..wont end</tspan><tspan x="0" y="139" xml:space="preserve">      here</tspan></text>
    <g id="Group_5" data-name="Group 5" transform="translate(4064.489 1888.457)">
      <path id="Path_1" data-name="Path 1" d="M207.511,246.963S319.658,211.7,393.717,294.927" fill="none" stroke="#fff" stroke-linecap="round" stroke-linejoin="round" stroke-width="16.928"/>
      <path id="Path_2" data-name="Path 2" d="M366.915,307.622s35.971,34.562,53.6,22.57-16.222-55.72-16.222-55.72,13.4,36.676,7.053,42.319S366.915,307.622,366.915,307.622Z" fill="#fff"/>
    </g>
    <g id="Group_6" data-name="Group 6" transform="translate(4064.489 1888.457)">
      <path id="Path_3" data-name="Path 3" d="M207.511,246.963S319.658,211.7,393.717,294.927" fill="none" stroke="#fff" stroke-linecap="round" stroke-linejoin="round" stroke-width="16.928"/>
      <path id="Path_4" data-name="Path 4" d="M366.915,307.622s35.971,34.562,53.6,22.57-16.222-55.72-16.222-55.72,13.4,36.676,7.053,42.319S366.915,307.622,366.915,307.622Z" fill="#fff"/>
    </g>
    <g id="Asset_1" data-name="Asset 1" transform="translate(4272 2127)">
      <g id="Layer_5" data-name="Layer 5">
        <path id="Path_5" data-name="Path 5" d="M0,10S3,8.89,8.35,7.45c2.68-.74,6-1.53,9.75-2.37S26.18,3.42,30.91,2.7,40.78,1.33,46.26.83C49,.63,51.81.37,54.7.27,56.14.21,57.6.12,59.08.09L63.55,0H68.1l4.62.09L77.4.38c1.57.08,3.15.17,4.72.34l4.77.44c1.59.14,3.18.4,4.78.6s3.2.38,4.79.68l4.79.84,2.39.43,2.38.53,4.75,1.06c3.14.79,6.25,1.66,9.34,2.54l4.57,1.49c1.51.51,3,.94,4.5,1.54l4.4,1.7,2.17.84c.73.28,1.42.62,2.13.92l4.18,1.88,2.06.92c.68.32,1.33.68,2,1l3.91,2c1.29.68,2.59,1.3,3.79,2l7.11,4.22,6.42,4.33c.52.34,1,.69,1.53,1l1.43,1.09L173.08,35l2.63,2L177,38l1.17,1,4.28,3.71c1.32,1.15,2.56,2.18,3.57,3.22l6.54,6.39a8.479,8.479,0,1,1-11.851,12.131c-.169-.161-.329-.331-.479-.5l-.32-.37-5.42-6.27c-.84-1-1.88-2-3-3.19l-3.6-3.69-1-1-1.07-1-2.24-2-2.35-2.14L160,43.18l-1.32-1-5.52-4.45L147,33.27c-1-.78-2.19-1.45-3.32-2.17l-3.45-2.16c-.59-.36-1.16-.75-1.77-1.1l-1.83-1-3.72-2.06c-.64-.34-1.25-.71-1.9-1l-2-.94-4-1.92c-1.32-.68-2.71-1.2-4.09-1.8l-4.16-1.76c-2.83-1.06-5.7-2.12-8.6-3.12l-4.41-1.38-2.21-.69-2.24-.6-4.49-1.19c-1.5-.4-3-.68-4.53-1s-3-.69-4.53-1l-4.54-.8c-1.5-.29-3-.5-4.52-.7l-4.5-.63-4.47-.46c-1.48-.15-3-.3-4.41-.39L59,5.08C57.57,5,56.14,5,54.73,4.9c-2.83-.14-5.6-.12-8.3-.15-5.39,0-10.51.22-15.22.58s-9,.81-12.85,1.29-7.13,1-9.85,1.54C3.06,9.15,0,10,0,10Z" fill="#fff"/>
        <path id="Path_6" data-name="Path 6" d="M159.4,70.63s36,34.57,53.61,22.58-16.22-55.73-16.22-55.73,13.4,36.68,7.05,42.32S159.4,70.63,159.4,70.63Z" fill="#fff"/>
      </g>
    </g>
    <g id="Asset_1-2" data-name="Asset 1" transform="translate(1547.544 1998.421) rotate(172)">
      <g id="Layer_5-2" data-name="Layer 5" transform="translate(0 0)">
        <path id="Path_7" data-name="Path 7" d="M0,311.157A231.819,231.819,0,0,0,25.075,325.11c8.048,4.049,18.018,8.372,29.279,12.968A350.669,350.669,0,0,0,92.821,351.1a446.692,446.692,0,0,0,46.1,10.232c8.228,1.094,16.666,2.517,25.345,3.064,4.324.328,8.709.821,13.153.985l13.423.492H204.5l13.874-.492,14.054-1.587a139.612,139.612,0,0,0,14.174-1.86l14.324-2.408c4.775-.766,9.549-2.189,14.354-3.283a137.069,137.069,0,0,0,14.384-3.721l14.384-4.6,7.177-2.353,7.147-2.9,14.264-5.8c9.429-4.323,18.768-9.083,28.048-13.9l13.723-8.153c4.534-2.791,9.009-5.144,13.513-8.427l13.213-9.3,6.516-4.6c2.192-1.532,4.264-3.393,6.4-5.034L426.6,277.176l6.186-5.034c2.042-1.751,3.994-3.721,6.006-5.472l11.742-10.944c3.874-3.721,7.778-7.113,11.381-10.944l21.351-23.091L502.542,198c1.562-1.86,3-3.776,4.594-5.472l4.294-5.964,8.318-12.2,7.9-10.944,3.874-5.472,3.513-5.472,12.853-20.3c3.964-6.293,7.688-11.929,10.721-17.619l19.639-34.965c10.063-17.9,10.251-47.281.423-65.612s-25.95-18.674-36.01-.766c-.508.88-.988,1.81-1.439,2.741l-.961,2.025L523.983,52.284c-2.522,5.472-5.646,10.944-9.009,17.455L504.164,89.93l-3,5.472-3.213,5.472-6.727,10.944-7.057,11.71-3.694,6.074-3.964,5.472-16.576,24.35-18.5,24.4c-3,4.268-6.576,7.934-9.97,11.874L421.1,207.52c-1.772,1.97-3.483,4.1-5.315,6.019l-5.5,5.472-11.171,11.272c-1.922,1.86-3.754,3.885-5.706,5.472l-6.006,5.144L375.4,251.4c-3.964,3.721-8.138,6.566-12.282,9.849l-12.492,9.63c-8.5,5.8-17.117,11.6-25.825,17.072l-13.243,7.551-6.637,3.776-6.727,3.283-13.483,6.511c-4.5,2.189-9.009,3.721-13.6,5.472s-9.009,3.776-13.6,5.472L243.869,324.4a135.327,135.327,0,0,1-13.573,3.83l-13.513,3.447-13.423,2.517c-4.444.821-9.009,1.642-13.243,2.134l-12.943,1.751c-4.294.438-8.588.438-12.823.985-8.5.766-16.816.657-24.924.821a332.214,332.214,0,0,1-45.7-3.174c-14.144-1.97-27.026-4.432-38.588-7.059a251.888,251.888,0,0,1-29.579-8.427A204.565,204.565,0,0,1,0,311.157Z" transform="translate(6.354 113.889)"/>
        <path id="Path_8" data-name="Path 8" d="M159.4,174.862S276.171-14.3,333.292,51.307,280.68,356.253,280.68,356.253s43.465-200.707,22.868-231.569S159.4,174.862,159.4,174.862Z" transform="translate(310.672 -37.48)"/>
      </g>
    </g>
    <g id="Asset_1-3" data-name="Asset 1" transform="matrix(0.259, 0.966, -0.966, 0.259, 5981.436, 2492.228)">
      <g id="Layer_5-3" data-name="Layer 5" transform="translate(0 0)">
        <path id="Path_7-2" data-name="Path 7" d="M688.129,185.042s-10.58,3.612-29.449,8.3c-9.452,2.408-21.161,4.979-34.386,7.712s-28.5,5.4-45.178,7.745-34.809,4.458-54.136,6.085c-9.663.651-19.574,1.5-29.766,1.822-5.079.2-10.228.488-15.447.586L464,217.583H447.954l-16.294-.293-16.505-.944c-5.537-.26-11.109-.553-16.646-1.106l-16.823-1.432c-5.608-.456-11.215-1.3-16.858-1.952s-11.286-1.237-16.893-2.213l-16.893-2.733-8.429-1.4-8.394-1.725-16.752-3.449c-11.074-2.571-22.042-5.4-32.94-8.265l-16.117-4.849c-5.325-1.66-10.58-3.059-15.87-5.011l-15.518-5.532-7.653-2.733c-2.575-.911-5.008-2.018-7.512-2.994l-14.742-6.118-7.265-2.994c-2.4-1.041-4.691-2.213-7.053-3.254L159,152.078c-4.549-2.213-9.134-4.23-13.367-6.508l-25.075-13.732-22.642-14.09c-1.834-1.106-3.527-2.245-5.4-3.254l-5.043-3.547-9.769-7.257-9.275-6.508-4.55-3.254-4.126-3.254L44.667,78.6c-4.655-3.742-9.029-7.094-12.591-10.478L9.011,47.33a26.107,26.107,0,0,1-.5-39.019C20.056-2.59,38.991-2.794,50.806,7.856c.6.523,1.161,1.077,1.69,1.63l1.129,1.2,19.115,20.4c2.963,3.254,6.63,6.508,10.58,10.38l12.7,12.007,3.527,3.254,3.774,3.254,7.9,6.508L119.5,73.46l4.338,3.612,4.655,3.254,19.468,14.481,21.725,14.513c3.527,2.538,7.724,4.718,11.709,7.061l12.167,7.029c2.081,1.171,4.091,2.441,6.242,3.579l6.454,3.254,13.12,6.7c2.257,1.106,4.408,2.31,6.7,3.254l7.054,3.059,14.107,6.248c4.655,2.213,9.558,3.9,14.424,5.857l14.671,5.727c9.981,3.449,20.1,6.9,30.33,10.153l15.553,4.491,7.794,2.245,7.9,1.952,15.835,3.872c5.29,1.3,10.58,2.213,15.976,3.254s10.58,2.245,15.976,3.254l16.012,2.6c5.29.944,10.58,1.627,15.941,2.278l15.871,2.05,15.765,1.5c5.22.488,10.58.976,15.553,1.269l15.2,1.041c5.043.26,10.087.26,15.059.586,9.981.456,19.75.39,29.272.488,19.009,0,37.067-.716,53.678-1.887s31.741-2.636,45.319-4.2,25.146-3.254,34.739-5.011C677.337,187.808,688.129,185.042,688.129,185.042Z" transform="translate(87.522 107.434)"/>
        <path id="Path_8-2" data-name="Path 8" d="M382.977,119.18S245.836,6.687,178.751,45.7s61.79,181.349,61.79,181.349S189.494,107.693,213.684,89.34,382.977,119.18,382.977,119.18Z" transform="translate(-159.4 -37.48)"/>
      </g>
    </g>
  </g>
</svg>
